<svg width="245" height="63" viewBox="0 0 245 63" fill="none" xmlns="http://www.w3.org/2000/svg">
<g id="Group 894">
<path id="Vector" d="M0 9.58569H29.932V21.9496H1.82096C0.653103 17.9304 0.0404472 13.7706 0 9.58569Z" fill="#F48120"/>
<path id="Vector_2" d="M9.65758 39.0084C7.05638 35.0378 4.87678 30.807 3.15416 26.3845H34.2242V38.9921C34.2242 38.9921 24.6642 38.8784 9.65758 38.9921" fill="#F48120"/>
<path id="Vector_3" d="M36.1102 61.8838C35.6438 62.1286 35.1249 62.2564 34.5982 62.2564C34.0714 62.2564 33.5525 62.1286 33.0861 61.8838C27.5267 58.7865 22.4944 54.8272 18.177 50.1535C18.0144 49.9098 17.9169 49.6661 17.9819 49.5036C18.047 49.3412 18.8436 49.1787 19.7866 49.1787H50.8567C50.9494 49.1842 51.0393 49.2122 51.1186 49.2603C51.198 49.3084 51.2644 49.3753 51.3119 49.4549C51.3119 49.6011 51.3119 49.8286 51.1331 50.0723C46.7948 54.7923 41.7218 58.7809 36.1102 61.8838Z" fill="#F48120"/>
<path id="Vector_4" d="M59.5713 39.1388C58.8397 40.2923 58.0755 41.4296 57.2789 42.5506L57.035 42.8756L56.2871 43.8829C56.1733 43.9966 56.0757 44.0616 55.9944 44.0453C55.9131 44.0291 55.8644 43.8991 55.8481 43.7204V42.8106C55.8481 42.6643 55.8481 42.5019 55.8481 42.3394V27.6035L51.9298 26.1413V12.4614L32.8748 5.02029H7.34886C7.17001 5.02029 7.17001 5.02029 7.17001 5.02029C7.17001 5.02029 7.17001 4.90656 7.26756 4.84158C10.2987 3.71623 13.4066 2.8095 16.5675 2.12834C22.4862 0.787816 28.5298 0.0744277 34.5982 0C40.6854 0.043549 46.751 0.729728 52.6939 2.04711C58.0997 3.09131 63.2997 5.00632 68.0908 7.71728C68.4246 7.90949 68.7041 8.18324 68.9032 8.51286C69.1022 8.84248 69.2143 9.2172 69.2289 9.60192C69.2289 19.2201 65.5382 29.6993 59.6038 39.1225" fill="#F48120"/>
<path id="Vector_5" d="M107.648 36.1489H85.9426V31.9897H107.534C108.086 31.9747 108.621 32.1793 109.022 32.5586C109.423 32.938 109.657 33.4609 109.672 34.0125C109.687 34.564 109.482 35.099 109.103 35.4996C108.723 35.9003 108.2 36.1339 107.648 36.1489ZM85.9426 24.9548H107.436C107.963 24.9548 108.467 25.1637 108.839 25.5354C109.211 25.9071 109.42 26.4113 109.42 26.937C109.42 27.4626 109.211 27.9668 108.839 28.3385C108.467 28.7103 107.963 28.9191 107.436 28.9191H85.9426V24.9548ZM110.753 30.2026C111.564 29.6616 112.178 28.8742 112.506 27.9569C112.833 27.0396 112.857 26.0413 112.572 25.1098C112.287 24.1783 111.71 23.3631 110.926 22.7851C110.141 22.207 109.191 21.8968 108.217 21.9004H82.5934V39.1384H108.607C109.678 39.1341 110.717 38.7692 111.555 38.1024C112.393 37.4357 112.982 36.506 113.226 35.4637C113.471 34.4214 113.356 33.3272 112.902 32.3579C112.447 31.3885 111.679 30.6006 110.721 30.1214" fill="black"/>
<path id="Vector_6" d="M119.712 24.9385H140.49C141.137 24.9385 141.757 25.1952 142.215 25.6522C142.672 26.1093 142.929 26.7292 142.929 27.3755C142.929 28.0218 142.672 28.6417 142.215 29.0987C141.757 29.5558 141.137 29.8125 140.49 29.8125H119.712V24.9385ZM142.831 39.1382H146.701L142.116 32.6395C143.455 32.3635 144.643 31.5984 145.448 30.4936C146.253 29.3889 146.617 28.024 146.469 26.6655C146.321 25.3071 145.671 24.0527 144.646 23.1475C143.622 22.2422 142.296 21.7512 140.929 21.7703H116.362V39.1382H119.712V32.802H138.311L142.831 39.1382Z" fill="black"/>
<path id="Vector_7" d="M218.011 24.9385H238.789C239.436 24.9385 240.056 25.1952 240.514 25.6522C240.971 26.1093 241.228 26.7292 241.228 27.3755C241.228 28.0218 240.971 28.6417 240.514 29.0987C240.056 29.5558 239.436 29.8125 238.789 29.8125H218.011V24.9385ZM241.13 39.1382H245L240.399 32.6395C241.738 32.3635 242.926 31.5984 243.731 30.4936C244.536 29.3889 244.9 28.024 244.752 26.6655C244.603 25.3071 243.954 24.0527 242.929 23.1475C241.905 22.2422 240.579 21.7512 239.212 21.7703H214.661V39.1382H218.011V32.802H236.611L241.13 39.1382Z" fill="black"/>
<path id="Vector_8" d="M152.57 29.0166V27.3919C152.57 26.7539 152.82 26.1413 153.267 25.6856C153.714 25.23 154.322 24.9676 154.96 24.9548H175.966V29.0328L152.57 29.0166ZM154.489 21.8842C153.082 21.9423 151.752 22.5377 150.771 23.5473C149.791 24.557 149.236 25.904 149.221 27.3106V39.1384H152.57V32.071H175.966V39.1384H179.315V21.8679L154.489 21.8842Z" fill="black"/>
<path id="Vector_9" d="M211.426 36.1655H186.274V32.0713H206.435V29.0169H186.274V24.9227H211.426V21.8845H182.892V39.2037H211.426V36.1655Z" fill="black"/>
</g>
</svg>
