<svg width="305" height="54" viewBox="0 0 305 54" fill="none" xmlns="http://www.w3.org/2000/svg">
<path d="M62.0464 27H54.5256L32.3393 0V19.7561C30.4197 19.7569 28.579 20.5204 27.2216 21.8787C25.8643 23.237 25.1014 25.079 25.1006 27H10.3411L32.4333 54V34.1498C30.778 33.8316 29.2871 32.9411 28.2216 31.6341C27.1561 30.327 26.5838 28.6867 26.6047 27C26.6176 25.1935 27.2962 23.4553 28.5106 22.1185C29.725 20.7818 31.3896 19.9406 33.1854 19.7561C34.9813 19.9406 36.6459 20.7818 37.8603 22.1185C39.0746 23.4553 39.7533 25.1935 39.7661 27H54.4316L36.1938 49.3902L40.0481 54L64.7726 27L40.0481 0L62.0464 27Z" fill="#03375C"/>
<path d="M24.7249 0L0 27L24.7249 54L2.63238 27H10.3407L28.5785 4.70387L24.7249 0Z" fill="#03375C"/>
<path d="M154.928 31.1394C156.098 31.1428 157.254 30.8857 158.312 30.3868C158.808 30.0252 159.199 29.5389 159.447 28.9772C159.695 28.4156 159.79 27.7984 159.722 27.1882V22.6725C159.777 22.0813 159.695 21.4855 159.483 20.9309C159.271 20.3764 158.935 19.8779 158.5 19.4739C157.431 18.8166 156.178 18.5199 154.928 18.6272H137.724V38.1011H143.083V31.1394H146.749C147.031 31.3275 154.458 38.1011 154.458 38.1011H162.449C162.449 38.1011 155.304 32.4565 153.706 31.1394H154.928ZM143.177 26.9059V22.7666H153.142C153.988 22.7666 154.27 22.9547 154.364 23.0488C154.475 23.1368 154.559 23.2534 154.609 23.386C154.659 23.5185 154.671 23.6622 154.646 23.8014V25.8711C154.646 26.3415 154.646 26.5297 154.364 26.6237C153.947 26.7912 153.495 26.8558 153.048 26.8119C152.954 26.9059 144.023 26.9059 143.177 26.9059Z" fill="#03375C"/>
<path d="M88.6511 28.223H99.0862V23.4251H88.6511V19.2857H106.513V14.4878H82.5405V38.007H106.795V32.9268H88.6511V28.223Z" fill="#03375C"/>
<path d="M128.135 33.5855H116.008V18.5332H110.649V33.3032C110.586 33.9807 110.661 34.6641 110.871 35.3113C111.082 35.9585 111.422 36.5557 111.871 37.0663C113.057 37.872 114.487 38.238 115.914 38.1012H128.229C130.297 38.1012 131.613 37.8189 132.366 37.0663C132.8 36.5652 133.132 35.9832 133.342 35.3536C133.552 34.7241 133.635 34.0593 133.588 33.3973V18.5332H128.229C128.135 18.5332 128.135 32.7388 128.135 33.5855Z" fill="#03375C"/>
<path d="M299.609 18.5332C299.609 18.5332 291.336 28.9757 290.678 29.8224C290.02 28.9757 281.747 18.5332 281.747 18.5332H277.516V38.0071H282.875V26.8119C284.191 28.5053 289.926 35.7492 289.926 35.7492H291.242C291.242 35.7492 296.977 28.5053 298.293 26.8119V38.0071H303.651V18.5332H299.609Z" fill="#03375C"/>
<path d="M257.586 30.1046H266.611V25.8712H257.586V22.7667H273.004V18.5332H252.134V38.0071H273.192V33.5855H257.586L257.586 30.1046Z" fill="#03375C"/>
<path d="M183.695 18.5332H169.217C167.243 18.5332 166.021 18.8154 165.269 19.568C164.141 20.6029 164.141 22.5785 164.141 23.4252V33.2092C164.141 33.9618 164.141 35.9373 165.175 36.9722C165.927 37.7248 167.337 38.1011 169.405 38.1011H183.695C185.199 38.1011 186.891 38.0071 187.925 36.9722C188.669 35.9701 189.035 34.7374 188.959 33.4914V23.4252C189.086 22.0865 188.718 20.7476 187.925 19.6621C186.703 18.5332 184.541 18.5332 183.695 18.5332ZM183.507 33.5855H169.405V23.0489H183.507V33.5855Z" fill="#03375C"/>
<path d="M242.357 25.683H229.007V18.6273H223.649V38.1012H229.007V30.2928H242.357V38.1012H247.715V18.5332H242.357V25.683Z" fill="#03375C"/>
<path d="M212.932 14.4878H199.394C198.078 14.4878 196.01 14.4878 194.694 15.7108C193.284 17.0279 193.284 19.2857 193.284 20.3205V32.2683C193.284 33.2091 193.284 35.561 194.694 36.878C196.01 38.101 198.078 38.101 199.394 38.101H212.932C214.248 38.101 216.316 38.101 217.632 36.878C219.043 35.561 219.043 33.3031 219.043 32.2683V29.1638H212.838V33.0209H199.582V19.5679H212.838V23.0488H219.042V20.3205C219.042 19.3798 219.042 17.0279 217.632 15.7108C216.41 14.4878 214.248 14.4878 212.932 14.4878Z" fill="#03375C"/>
</svg>
