<svg width="227" height="53" viewBox="0 0 227 53" fill="none" xmlns="http://www.w3.org/2000/svg">
<g id="svg2" clip-path="url(#clip0_10_19243)">
<g id="g6">
<g id="g8">
<g id="g10">
<path id="polygon12" fill-rule="evenodd" clip-rule="evenodd" d="M58.6266 0.25415H65.722V43.4086H58.6266V0.25415Z" fill="#003366"/>
<path id="path14" fill-rule="evenodd" clip-rule="evenodd" d="M30.935 15.8349C30.935 14.8136 30.2523 14.2577 29.4685 14.2577C28.6885 14.2577 27.9881 14.7976 27.9881 15.8349V36.6187C27.9881 37.6545 28.6882 38.1959 29.4685 38.1959C30.2526 38.1959 30.935 37.6303 30.935 36.6187V29.8077H38.0235V36.0859C38.0235 41.1785 34.1275 43.8327 29.4356 43.8327C24.9482 43.8327 20.8982 41.2638 20.8982 36.0859V16.3635C20.8982 11.1965 24.9486 8.62012 29.4356 8.62012C34.0483 8.62012 38.0235 11.2765 38.0235 16.3635V21.9854H30.935V15.8349Z" fill="#003366"/>
<path id="path16" fill-rule="evenodd" clip-rule="evenodd" d="M46.8457 16.7706C46.8457 15.7337 47.5437 15.1937 48.324 15.1937C49.1071 15.1937 49.7929 15.7529 49.7929 16.7706V43.4122H56.8881V14.8679C56.8881 10.2164 53.9554 8.61392 51.7172 8.61392C49.2168 8.61392 47.46 10.4718 46.9752 11.4151H46.8603V0.25415H39.7651V43.4122H46.8454L46.8457 16.7706Z" fill="#003366"/>
<path id="path18" fill-rule="evenodd" clip-rule="evenodd" d="M77.4907 35.9975C77.4907 37.0127 76.8052 37.5754 76.0218 37.5754C75.2439 37.5754 74.5435 37.0344 74.5435 35.9975V9.02124H67.4519V37.6665C67.4519 41.4647 70.0001 43.833 72.7345 43.833C75.5052 43.833 77.0091 41.7685 77.4347 41.0123H77.5946L77.7215 43.4122H84.5828V9.02124H77.4911V35.9975H77.4907Z" fill="#003366"/>
<path id="path20" fill-rule="evenodd" clip-rule="evenodd" d="M93.4046 43.4122H86.3123V9.0213H93.3368L93.4077 11.4202H93.5496C94.07 10.3648 95.7577 8.61401 98.3152 8.61401C100.964 8.61401 102.667 10.7112 103.03 11.9452H103.131C103.66 10.6906 105.517 8.61401 108.204 8.61401C110.918 8.61401 113.519 10.5067 113.519 15.1878V43.4122H106.424V16.4303C106.424 15.3909 105.73 14.8499 104.948 14.8499C104.165 14.8499 103.473 15.408 103.473 16.4303V43.4122H96.3456V16.4427C96.3456 15.403 95.639 14.8623 94.859 14.8623C94.0752 14.8623 93.4043 15.4226 93.4043 16.4427V43.4122H93.4046Z" fill="#003366"/>
<path id="path22" fill-rule="evenodd" clip-rule="evenodd" d="M127.027 8.61392C124.653 8.61143 122.945 10.6784 122.498 11.4322H122.346V0.25415H115.252V43.4122H122.267L122.346 41.0122H122.498C122.852 41.9385 124.375 43.8194 126.976 43.823C129.98 43.8269 132.422 41.1666 132.422 37.1436V14.8679C132.422 10.9993 129.875 8.61392 127.027 8.61392ZM125.303 36.0092C125.303 37.0283 124.617 37.5878 123.83 37.5878C123.051 37.5878 122.35 37.0443 122.35 36.0092V16.4526C122.35 15.4154 123.051 14.8754 123.83 14.8754C124.617 14.8754 125.303 15.437 125.303 16.4526V36.0092Z" fill="#003366"/>
<path id="path24" fill-rule="evenodd" clip-rule="evenodd" d="M141.246 36.6354C141.246 37.6723 141.95 38.2137 142.73 38.2137C143.511 38.2137 144.196 37.6545 144.196 36.6354V29.8077H151.286V36.0802C151.286 41.2663 147.135 43.8331 142.701 43.8331C138.21 43.8331 134.145 41.2663 134.145 36.0802V16.3755C134.145 11.2061 138.204 8.62012 142.695 8.62012C147.304 8.62012 151.286 11.2644 151.286 16.3755V27.4878H141.246V36.6354H141.246ZM144.196 22.2433V15.8409C144.196 14.8236 143.511 14.2641 142.731 14.2641C141.95 14.2641 141.247 14.8012 141.247 15.8409L141.253 22.2433H144.196Z" fill="#003366"/>
<path id="path26" fill-rule="evenodd" clip-rule="evenodd" d="M161.61 14.868C160.833 14.868 160.125 15.408 160.125 16.4484V43.4122H153.026V9.0213H159.983L160.119 11.4152H160.277C160.946 10.4594 162.659 8.61401 165.029 8.61401C167.776 8.61401 170.174 10.9044 170.174 14.5422V27.4514H163.075V16.22C163.075 15.3973 162.309 14.868 161.594 14.868H161.61Z" fill="#003366"/>
<path id="path28" fill-rule="evenodd" clip-rule="evenodd" d="M197.842 36.6354C197.842 37.6723 198.548 38.2137 199.326 38.2137C200.109 38.2137 200.793 37.6545 200.793 36.6354V29.8077H207.884V36.0802C207.884 41.2663 203.725 43.8331 199.297 43.8331C194.805 43.8331 190.746 41.2663 190.746 36.0802V16.3755C190.746 11.2061 194.8 8.62012 199.29 8.62012C203.898 8.62012 207.884 11.2644 207.884 16.3755V27.4878H197.842V36.6354ZM200.793 22.2433V15.8409C200.793 14.8236 200.109 14.2641 199.326 14.2641C198.548 14.2641 197.842 14.8012 197.842 15.8409L197.848 22.2433H200.793Z" fill="#003366"/>
<path id="path30" fill-rule="evenodd" clip-rule="evenodd" d="M218.185 14.868C217.397 14.868 216.697 15.408 216.697 16.4484V43.4122H209.596V9.0213H216.549L216.691 11.4152H216.845C217.515 10.4594 219.23 8.61401 221.602 8.61401C224.35 8.61401 226.749 10.9044 226.749 14.5422V27.4514H219.645V16.22C219.645 15.3973 218.879 14.868 218.166 14.868H218.185Z" fill="#003366"/>
<path id="path32" fill-rule="evenodd" clip-rule="evenodd" d="M181.934 33.8548C181.934 34.87 181.254 35.4295 180.467 35.4295C179.689 35.4295 178.987 34.8921 178.987 33.8548V16.4584C178.987 15.425 179.689 14.8876 180.467 14.8876C181.254 14.8876 181.934 15.4421 181.934 16.4584V33.8548ZM181.934 45.9313C181.934 46.949 181.25 47.5057 180.467 47.5057C179.689 47.5057 178.987 46.9647 178.987 45.9313V43.1423H171.903V45.0378C171.903 50.4136 175.509 52.8053 180.444 52.8053C185.339 52.8053 189.031 50.4136 189.031 45.0378V9.0213H182.04L181.934 11.4323H181.762C181.392 10.6444 179.731 8.61401 177.086 8.61401C174.527 8.61401 171.903 10.6348 171.903 14.3697V34.9091C171.903 38.8425 174.36 41.1389 177.127 41.1389C179.758 41.1389 181.289 39.3309 181.724 38.6149H181.934L181.934 45.9313Z" fill="#003366"/>
<path id="path34" fill-rule="evenodd" clip-rule="evenodd" d="M8.14847 36.0801C8.14847 37.1195 8.85161 37.6605 9.63262 37.6605C10.415 37.6605 11.096 37.0974 11.096 36.0801V32.0019C11.096 28.7476 10.4181 27.5656 8.06749 25.2948C6.06394 23.3569 5.05282 22.3599 3.7583 21.1053C2.10217 19.4954 0.1917 17.2534 0.1917 13.0639V7.89442C0.189624 2.22022 4.78326 0.108398 9.62293 0.108398C14.4474 0.108398 19.0033 2.26646 19.0033 7.85422V14.5191H11.0957V8.05235C11.0957 7.03361 10.4126 6.47409 9.62916 6.47409C8.8485 6.47409 8.14847 7.01618 8.14847 8.05235V11.1573C8.14847 13.8468 8.96754 15.0295 11.1365 17.1584C12.0089 18.0167 13.9833 19.9912 15.5031 21.5147C18.2206 24.2511 19.16 26.7194 19.16 30.1139V35.8912C19.16 41.8984 14.4564 44.0077 9.62293 44.0077C4.7272 44.008 0.162979 41.8984 0.162979 36.1772V27.9014H8.14847V36.0801Z" fill="#003366"/>
</g>
</g>
</g>
</g>
<defs>
<clipPath id="clip0_10_19243">
<rect width="227" height="53" fill="white"/>
</clipPath>
</defs>
</svg>
