<svg width="27" height="27" viewBox="0 0 27 27" fill="none" xmlns="http://www.w3.org/2000/svg">
<g id="ic:round-email">
<path id="Vector" fill-rule="evenodd" clip-rule="evenodd" d="M13 3C7.477 3 3 7.477 3 13C3 14.89 3.525 16.66 4.438 18.168L3.546 21.2C3.49478 21.3741 3.49141 21.5587 3.53624 21.7346C3.58107 21.9104 3.67245 22.0709 3.80076 22.1992C3.92907 22.3276 4.08958 22.4189 4.26542 22.4638C4.44125 22.5086 4.62592 22.5052 4.8 22.454L7.832 21.562C9.39068 22.5051 11.1782 23.0025 13 23C18.523 23 23 18.523 23 13C23 7.477 18.523 3 13 3ZM10.738 15.263C12.761 17.285 14.692 17.552 15.374 17.577C16.411 17.615 17.421 16.823 17.814 15.904C17.8636 15.7897 17.8816 15.6641 17.8661 15.5405C17.8507 15.4168 17.8023 15.2996 17.726 15.201C17.178 14.501 16.437 13.998 15.713 13.498C15.5618 13.3935 15.3761 13.3516 15.1947 13.381C15.0133 13.4105 14.8503 13.509 14.74 13.656L14.14 14.571C14.1085 14.6202 14.0593 14.6555 14.0026 14.6696C13.9459 14.6837 13.8859 14.6756 13.835 14.647C13.428 14.414 12.835 14.018 12.409 13.592C11.983 13.166 11.611 12.6 11.402 12.219C11.3761 12.1706 11.3686 12.1144 11.3809 12.0609C11.3932 12.0074 11.4245 11.9602 11.469 11.928L12.393 11.242C12.5249 11.1273 12.61 10.9682 12.6321 10.7949C12.6542 10.6215 12.6118 10.4461 12.513 10.302C12.065 9.646 11.543 8.812 10.786 8.259C10.6883 8.1882 10.5739 8.14406 10.4539 8.13091C10.334 8.11776 10.2127 8.13606 10.102 8.184C9.182 8.578 8.386 9.588 8.424 10.627C8.449 11.309 8.716 13.24 10.738 15.263Z" fill="black"/>
</g>
</svg>
