<svg width="1110" height="633" viewBox="0 0 1110 633" fill="none" xmlns="http://www.w3.org/2000/svg">
<path d="M1104.3 88.4584C1099 76.6536 1096.64 79.1454 1085.49 76.6536C1069.04 72.3241 1051.38 71.67 1035.5 65.4717C1017.27 59.2422 986.687 48.0603 967.282 53.6668C968.466 56.1586 970.242 59.8963 971.394 61.7651C964.946 64.8799 957.876 57.4045 951.428 55.5356C942.614 53.6668 932.024 55.5356 923.209 56.1586C913.211 56.1586 909.691 53.6668 900.284 49.9291C892.062 46.8144 880.88 48.6832 872.065 48.0603C859.139 48.0603 854.435 47.4373 843.845 40.5849C831.48 33.1095 820.298 33.7324 806.78 33.7324C800.301 33.7324 789.742 31.8636 785.008 36.2242C779.713 40.5849 785.6 43.6996 777.377 45.5685C773.826 46.1914 768.531 43.6996 765.011 43.6996C757.349 43.6996 758.533 46.8144 752.677 48.6832C744.454 51.175 739.72 44.3226 734.456 39.9619C724.457 31.8636 707.98 26.2882 695.054 26.9112C690.351 27.5341 686.831 31.2718 680.944 31.8948C673.282 32.5177 665.651 27.5341 657.428 26.9112C643.879 26.2882 628.617 35.0095 615.659 30.6489C617.435 23.1735 629.209 26.9112 629.209 17.5981C629.209 10.1227 620.394 8.90796 615.099 9.49977H615.691C609.212 9.49977 603.356 11.9916 598.061 11.3686C592.766 10.7457 585.135 7.63092 580.401 5.76208C574.545 3.89323 570.402 -0.436257 563.924 2.64734C558.068 5.13913 559.812 9.49977 555.701 11.9916C552.181 13.8604 547.478 13.2375 543.958 13.2375C536.888 13.2375 531.001 13.2375 524.553 15.1063C521.625 15.1063 516.922 16.3522 513.963 16.9751C506.924 19.4669 509.852 19.4669 505.74 23.1735C501.629 26.9112 505.74 26.9112 498.701 28.78C495.742 29.403 491.63 27.5341 488.703 28.78C475.776 33.1406 490.478 34.3865 491.07 41.8308C485.775 43.6996 452.26 34.3554 454.036 46.8144C454.627 48.6832 461.106 54.2586 462.881 55.5045C464.034 56.1274 462.29 59.2422 464.034 60.4569C466.401 62.3258 469.921 61.0799 471.696 62.3258C476.399 65.4405 475.808 62.9487 475.808 70.4241C475.808 73.5388 476.399 77.2454 474.624 79.7372C469.329 85.9667 456.403 82.8519 456.403 74.7536C456.403 70.3929 459.922 68.5241 459.362 63.5717C458.178 59.211 452.291 52.9815 450.547 49.8668C445.252 41.7996 443.477 33.7013 432.886 34.3242C421.113 34.9472 417.624 42.3914 425.847 51.1127C429.959 54.8504 444.068 66.0323 429.959 64.7864C422.296 64.1635 417.001 56.0963 408.778 55.4733C398.188 54.8504 394.669 61.7028 386.446 64.7864C379.967 67.2782 368.785 64.7864 361.746 64.7864C354.706 64.7864 321.753 79.0831 319.977 76.5913C318.825 73.4765 325.864 71.6077 324.712 68.5241C323.528 65.4094 316.489 64.1635 313.53 65.4094C301.195 70.3929 318.264 75.9683 308.826 83.4437C306.49 85.9355 301.164 82.8208 297.676 84.6896C292.941 87.1814 294.717 90.2961 292.381 92.165C285.902 98.3945 282.974 92.165 274.751 92.165C270.017 92.165 272.976 97.1486 265.905 94.0338C265.313 94.0338 258.274 86.5584 258.274 85.3437C257.682 79.1454 269.456 82.229 274.751 82.229C280.046 82.229 291.228 84.7208 292.972 78.4913C295.931 69.77 281.822 68.5241 277.118 66.6864C264.161 62.3258 248.307 58.5881 236.533 54.2586C230.646 52.3897 227.127 48.0291 219.496 49.275V48.6521C202.458 48.0291 190.092 53.0127 173.615 56.1274C158.914 59.2422 150.068 81.6372 138.917 92.8191C133.622 98.4256 125.991 103.378 118.921 106.493C108.922 110.853 101.883 108.985 99.5158 121.412C98.3322 127.642 100.108 138.824 104.78 143.184C111.85 150.037 117.737 142.561 124.216 139.447C133.622 134.494 136.55 137.578 140.07 147.514C141.253 150.629 144.773 168.663 145.957 169.286C150.691 172.993 165.361 162.434 166.545 158.073C168.32 154.958 165.953 150.006 167.729 146.891C169.504 142.561 174.207 141.907 175.952 138.201C181.247 127.642 168.289 124.527 171.248 113.968C174.176 104.001 184.766 105.278 190.061 99.0486C195.325 93.442 195.917 82.8831 205.355 85.9667C217.689 89.7043 204.171 98.3945 199.468 104.001C188.878 116.46 197.692 135.117 212.986 130.757C218.281 128.888 226.504 123.904 232.391 125.804C242.389 128.919 237.686 136.363 229.463 137.609C224.728 138.232 215.914 133.248 212.394 138.232C208.283 145.084 217.128 143.216 216.505 146.922C214.761 153.152 211.242 151.283 207.099 152.529C202.396 153.775 201.212 150.037 197.692 156.858C196.54 159.35 198.284 164.334 197.692 166.825C197.692 166.202 189.469 175.547 190.653 174.893C182.991 179.253 187.694 173.024 181.247 172.401C173.024 171.778 167.729 181.745 159.506 181.745C153.619 181.745 154.211 176.761 150.099 175.515C144.835 174.27 141.876 178.63 137.173 178.007C122.471 177.384 130.134 169.286 130.694 161.219C131.878 148.76 119.512 152.498 117.768 161.842C116.585 168.071 125.399 176.138 119.544 181.745C116.024 186.106 103.658 184.237 97.7715 189.22C92.4765 193.581 87.7732 200.402 81.8864 204.14C78.9585 206.632 75.4077 207.878 73.0717 210.338C70.7356 212.83 69.552 219.028 66.0323 220.305C61.9209 220.928 49.5554 207.255 51.9226 222.174C46.0357 223.42 36.0374 220.305 34.262 227.75C31.3341 237.717 40.7407 233.979 45.4439 235.817C54.8504 239.555 64.8487 263.195 50.1472 268.179C38.9964 271.885 20.744 261.949 8.9703 268.179C1.93099 271.885 4.85884 280.607 4.26704 288.082C3.76868 291.384 2.89656 293.751 1.8064 295.807C22.2702 297.146 42.3603 299.918 62.0766 303.998C61.8274 302.067 61.7651 300.167 62.4815 298.641C63.6651 294.935 67.1848 292.443 70.1438 290.574C79.5503 284.999 80.1421 287.459 84.8454 277.523C88.365 270.048 87.1814 269.425 96.5879 270.048C100.108 270.048 104.811 271.917 108.362 270.671C110.137 270.048 109.545 266.341 110.698 266.341C113.657 265.095 115.432 266.964 117.768 266.341C125.399 264.472 131.878 261.981 136.581 271.917C138.357 275.654 135.989 280.607 138.917 284.376C140.693 285.622 148.324 287.459 150.068 288.082C153.619 289.951 162.402 291.82 164.77 294.312C168.289 298.641 165.953 303.625 167.137 308.608C172.432 330.38 171.84 294.935 181.247 299.264C185.981 289.297 153.027 275.031 148.916 266.933C144.804 259.458 145.957 247.03 155.955 252.605C159.475 254.474 161.25 261.918 164.178 264.41C167.697 267.525 171.248 266.902 174.768 269.394C180.655 272.508 188.286 278.707 191.245 284.936C192.429 288.051 192.429 289.889 193.02 293.035C194.204 297.987 193.612 299.233 195.948 302.971C197.724 306.677 201.835 309.823 203.019 312.907C204.171 315.398 205.946 324.089 207.722 325.334C214.792 331.564 221.271 319.759 221.271 314.153C221.271 309.169 216.537 302.348 218.312 297.364C220.679 291.166 230.646 293.035 236.564 292.412C239.523 296.741 236.564 299.856 237.156 304.839C237.748 310.446 241.268 312.938 243.635 317.89C245.379 321.005 246.563 324.712 250.114 326.612C251.858 327.857 254.225 326.611 256.592 327.234C256.592 327.234 262.479 330.972 261.887 330.972C266.622 331.595 267.182 329.103 272.477 328.48C277.181 327.857 280.14 331.564 284.812 331.564C291.29 330.941 300.697 320.382 305.992 330.318V332.779C304.217 342.715 307.736 348.944 304.217 358.88C301.849 366.979 303.033 373.831 295.994 376.292C294.966 376.665 294.031 376.852 293.097 376.977C297.8 380.652 302.254 384.608 306.49 388.844C312.626 391.71 318.513 394.918 324.151 398.593C335.769 399.621 346.888 401.957 357.447 405.508C367.477 403.328 377.662 402.175 387.692 402.175C391.71 402.175 395.665 402.393 399.559 402.673C397.721 399.216 396.569 395.136 395.385 391.896L394.201 390.028C396.537 378.192 405.975 382.552 410.678 388.159C417.749 396.849 417.749 402.455 427.716 406.847C429.709 407.719 431.827 408.685 433.977 409.619C436.749 410.554 439.49 411.55 442.2 412.641C445.034 413.419 447.9 413.855 450.672 413.637C454.783 413.014 456.527 406.816 462.414 410.554C466.526 413.637 464.19 418.029 466.526 421.113C471.821 426.096 482.411 423.605 488.889 424.227C494.776 424.85 501.224 427.965 506.55 427.965C516.548 427.965 525.955 419.244 535.953 426.096C541.248 430.426 541.84 439.147 546.543 445.377C548.319 447.245 550.063 447.245 551.838 449.083C552.461 450.983 551.247 454.067 551.838 455.313C554.797 460.296 555.95 462.788 561.276 463.411C571.866 465.28 564.204 458.427 571.274 455.313C578.937 451.606 578.314 460.296 578.314 465.872C578.314 471.447 575.386 477.708 575.978 483.283C576.569 490.758 581.865 493.219 584.792 500.071C588.312 506.301 585.384 513.153 588.312 519.975C590.648 526.827 596.535 530.565 598.902 538.009C603.014 549.845 607.717 559.189 613.012 570.34L612.42 568.502C617.715 577.224 624.163 564.733 627.682 560.404C634.753 551.714 631.202 551.714 631.794 539.878C632.386 531.188 634.161 521.843 634.753 513.153C635.345 502.563 641.823 500.071 648.863 493.219C654.749 487.021 663.564 482.037 668.267 474.562C674.154 465.872 672.971 462.757 681.785 456.527C687.08 452.821 697.079 445.968 704.149 449.675C709.444 452.198 706.485 454.036 708.852 457.773C711.811 462.134 713.556 464.003 717.698 467.74C724.738 474.593 727.666 480.822 730.033 490.758C731.185 496.988 729.41 508.793 737.664 508.793C745.326 508.793 744.734 493.842 751.213 496.365C754.733 498.234 757.66 515.022 759.436 519.352C765.915 533.057 768.842 546.107 768.251 561.65C768.251 569.125 766.475 574.732 769.434 581.522C772.954 588.374 780.024 594.604 784.136 602.079C787.655 608.9 790.023 618.245 795.286 623.82C801.765 631.295 809.988 635.625 809.396 624.443C808.805 617.591 807.029 605.786 805.285 599.556C802.357 590.866 792.95 588.997 787.064 582.145C772.954 567.848 771.77 558.535 774.137 539.255C775.913 527.419 778.841 528.042 787.655 533.025C797.654 538.632 799.429 541.124 804.132 549.814C805.316 552.306 808.867 555.389 810.019 557.289C810.611 559.158 811.795 567.848 812.978 568.471C820.018 574.078 824.129 562.865 827.68 559.158C833.567 551.683 842.381 549.222 844.157 539.255C845.309 531.779 843.534 517.452 840.045 511.876C832.383 498.826 804.164 481.414 817.121 463.38C822.385 455.904 831.823 455.904 838.301 460.888C840.637 462.134 838.893 470.824 846.524 467.709C848.299 467.086 848.299 460.265 851.227 458.365C853.595 456.496 857.706 457.742 860.042 456.496C864.776 454.627 866.521 449.644 871.816 449.021H870.632C899.443 444.068 905.33 408.623 907.106 383.736C895.955 383.113 904.77 377.506 904.178 371.931C903.586 367.57 893.588 357.603 890.629 353.897C887.701 350.159 878.294 342.061 877.111 337.731C875.927 330.256 885.925 325.272 890.037 320.943C884.15 314.713 875.335 322.189 868.265 319.697C865.337 318.451 853.563 309.107 853.563 305.992C853.563 301.662 868.857 289.203 872.968 289.826C882.375 291.695 871.785 304.154 880.008 307.238C890.006 310.975 891.781 290.449 902.371 305.369C905.299 309.107 902.963 310.353 907.666 314.682C911.186 317.797 914.145 317.174 917.073 322.157C921.184 329.01 918.848 335.208 921.184 341.438C922.96 347.044 921.776 347.044 928.224 347.044C929.407 347.044 937.661 343.929 938.814 343.307C958.219 327.795 920.593 315.336 917.633 302.908C916.481 294.81 924.081 292.349 924.704 284.251C925.296 276.776 919.97 265.594 934.111 269.923C938.222 271.169 937.07 276.776 942.925 276.153C949.404 275.53 948.22 273.038 948.22 267.431C948.812 263.694 945.884 259.333 946.445 254.972C947.037 250.02 949.404 246.905 950.556 242.545C952.332 235.692 952.892 228.248 954.076 220.773C956.412 210.805 953.484 210.183 948.781 201.492C942.925 192.148 942.925 187.196 931.743 183.458C924.704 181.589 918.225 183.458 911.747 181.589C907.043 180.343 907.043 179.129 903.524 177.26C901.779 176.014 896.484 173.522 895.301 172.276C890.598 169.161 891.781 173.522 890.598 166.67C890.006 163.555 891.781 157.325 892.965 154.242C895.924 148.012 900.627 136.83 907.075 134.339C910.034 133.093 916.512 133.716 920.001 134.339C923.52 134.962 928.224 138.668 931.183 138.668C935.886 138.668 937.07 134.962 940.589 133.716C947.068 132.47 948.251 136.83 952.924 138.045C956.443 139.291 961.146 141.16 965.289 139.291C972.951 136.799 968.809 137.422 968.809 131.847C968.809 127.486 966.442 111.944 977.623 118.173C982.919 121.288 984.694 136.207 994.1 126.863C997.62 124.371 994.692 118.173 998.804 115.681C1004.1 111.944 1007.65 115.681 1008.21 120.634C1009.39 126.24 1004.1 128.109 1002.92 132.47C1001.76 138.045 1004.69 141.16 1003.51 146.143C1002.32 151.127 996.436 148.012 997.059 154.834C997.059 158.571 1002.92 162.932 1004.69 165.393C1010.58 173.491 1016.46 181.558 1023.5 188.41C1026.46 191.494 1039.98 206.445 1044.09 204.576C1049.98 202.084 1043.5 197.724 1043.5 195.232C1043.5 193.363 1042.91 192.117 1042.91 190.248C1043.5 187.133 1047.02 187.133 1047.61 185.265C1048.8 180.904 1046.43 178.412 1045.84 173.429C1045.84 172.183 1049.95 171.56 1049.95 167.822C1049.36 165.33 1045.84 163.461 1045.24 161.624C1043.47 157.886 1042.91 151.657 1039.95 149.165C1035.84 143.589 1031.13 146.673 1026.43 143.589C1017.02 136.737 1021.14 127.424 1031.13 128.047C1036.43 128.67 1039.36 132.407 1044.68 132.407C1048.8 131.784 1054.09 128.047 1057.61 126.801H1057.02C1064.06 122.44 1062.31 114.373 1071.72 112.504C1078.76 111.258 1089.35 114.373 1079.35 105.06C1076.42 101.322 1056.43 95.0928 1069.38 88.2716C1076.42 84.5339 1090.53 96.9617 1097.6 97.5846C1099.94 98.2076 1105.27 99.4535 1107.01 97.5846C1111.71 92.601 1105.83 91.9781 1104.67 88.2716L1104.3 88.4584Z" fill="white" stroke="url(#paint0_radial_26_18067)" stroke-linecap="round" stroke-linejoin="round"/>
<path d="M52.8569 266.933C52.265 279.361 61.0798 270.64 65.8142 271.263C72.8535 271.886 75.9682 281.199 83.6305 279.953" stroke="url(#paint1_radial_26_18067)" stroke-miterlimit="10"/>
<path d="M233.979 126.396C236.907 118.92 247.497 117.675 248.681 110.853C249.864 105.87 246.345 106.493 244.569 102.755C242.794 98.3943 242.794 95.9025 241.641 91.573C239.866 84.0976 237.53 78.4911 233.418 71.6698C225.195 58.619 232.235 66.0633 236.938 54.8813" stroke="url(#paint2_radial_26_18067)" stroke-miterlimit="10"/>
<path d="M230.428 61.7031C228.653 57.9654 222.797 53.0129 218.686 53.0129C213.391 53.6359 214.574 56.1277 211.023 59.2113C201.025 68.5555 202.801 59.8342 191.619 61.0801C178.692 62.326 192.802 67.9325 196.914 72.2932C203.953 78.4915 203.361 81.6374 201.025 90.9505" stroke="url(#paint3_radial_26_18067)" stroke-miterlimit="10"/>
<path d="M185.171 64.8171C181.06 67.3089 176.948 64.8171 173.428 66.686C169.909 68.5548 168.133 73.5384 165.205 75.9991C162.246 79.7367 158.135 80.3597 155.207 84.7203C153.432 87.8351 153.432 93.4416 151.096 97.1793C145.801 105.869 136.986 105.246 138.761 116.46C140.537 123.935 148.76 133.871 136.425 139.477" stroke="url(#paint4_radial_26_18067)" stroke-miterlimit="10"/>
<path d="M233.387 137.578C232.796 145.053 232.796 150.629 235.755 156.858C241.018 169.317 246.345 158.727 255.159 164.956C259.271 167.448 256.935 169.94 259.271 172.432C261.046 174.301 268.677 178.038 269.269 180.53C272.197 189.22 261.046 184.86 260.454 193.581C268.677 195.45 275.156 194.827 281.043 199.187C285.154 203.548 289.266 212.238 296.897 214.73C303.967 216.599 313.966 207.878 319.821 215.976C328.044 226.535 312.19 228.404 311.599 237.125" stroke="url(#paint5_radial_26_18067)" stroke-miterlimit="10"/>
<path d="M79.8927 205.355C87.555 206.601 86.3714 215.291 94.6254 217.16C100.481 218.406 114.591 213.422 115.214 225.258C115.806 230.864 110.479 232.733 107.552 236.44C106.96 237.686 108.143 241.423 107.552 243.292C106.96 244.538 102.257 243.292 102.257 245.161C102.257 250.145 106.368 251.391 108.143 256.374C108.735 258.866 108.143 263.195 108.143 266.341" stroke="url(#paint6_radial_26_18067)" stroke-miterlimit="10"/>
<path d="M106.96 251.391C112.816 251.391 112.816 245.161 118.111 243.292C120.447 242.669 123.406 245.753 125.773 245.161C129.293 244.538 129.884 243.292 132.252 242.078C139.291 238.963 154.615 234.602 152.248 250.176" stroke="url(#paint7_radial_26_18067)" stroke-miterlimit="10"/>
<path d="M112.255 230.241C118.734 233.979 139.883 228.373 138.73 238.34" stroke="url(#paint8_radial_26_18067)" stroke-miterlimit="10"/>
<path d="M103.44 215.945C102.849 205.386 115.214 195.419 108.144 185.483" stroke="url(#paint9_radial_26_18067)" stroke-miterlimit="10"/>
<path d="M89.8914 197.287C92.8504 203.517 97.5536 207.846 104.001 205.977" stroke="url(#paint10_radial_26_18067)" stroke-miterlimit="10"/>
<path d="M136.955 234.571C140.475 226.473 149.289 230.833 152.84 222.143C149.881 221.52 142.25 218.405 141.658 214.668C141.066 209.061 148.729 208.438 152.248 205.947C162.247 197.848 152.84 192.242 155.768 180.437" stroke="url(#paint11_radial_26_18067)" stroke-miterlimit="10"/>
<path d="M155.768 202.24C161.063 202.863 164.583 207.224 169.317 209.092C173.429 210.338 181.06 208.469 181.651 215.322C182.243 227.75 159.879 223.42 152.84 223.42" stroke="url(#paint12_radial_26_18067)" stroke-miterlimit="10"/>
<path d="M151.065 241.423C163.991 239.554 170.47 241.423 172.245 225.258" stroke="url(#paint13_radial_26_18067)" stroke-miterlimit="10"/>
<path d="M156.329 255.097C159.848 248.898 171.622 246.407 168.102 237.685" stroke="url(#paint14_radial_26_18067)" stroke-miterlimit="10"/>
<path d="M168.694 242.046C172.214 247.03 191.618 247.03 187.507 254.474C182.804 263.818 171.061 247.653 171.061 266.31" stroke="url(#paint15_radial_26_18067)" stroke-miterlimit="10"/>
<path d="M186.916 256.966C196.322 263.164 186.324 268.771 184.548 275.623" stroke="url(#paint16_radial_26_18067)" stroke-miterlimit="10"/>
<path d="M189.282 278.738C197.505 272.508 197.505 280.607 200.464 286.836C203.392 293.688 206.943 294.311 197.505 300.51" stroke="url(#paint17_radial_26_18067)" stroke-miterlimit="10"/>
<path d="M203.392 294.28C212.799 293.658 213.982 283.099 222.205 282.476C228.092 282.476 238.682 286.213 235.754 293.066" stroke="url(#paint18_radial_26_18067)" stroke-miterlimit="10"/>
<path d="M238.091 298.018C242.202 294.312 249.241 295.527 250.456 288.082" stroke="url(#paint19_radial_26_18067)" stroke-miterlimit="10"/>
<path d="M215.758 284.967C214.605 273.754 206.351 278.115 199.873 281.23" stroke="url(#paint20_radial_26_18067)" stroke-miterlimit="10"/>
<path d="M211.054 277.492C213.982 263.788 198.72 238.309 185.763 250.145" stroke="url(#paint21_radial_26_18067)" stroke-miterlimit="10"/>
<path d="M172.806 229.618C178.101 235.194 179.876 230.241 185.14 228.995C190.435 227.127 193.986 226.504 199.842 227.127C206.912 227.127 205.728 228.373 209.248 223.42C209.84 222.797 209.248 218.437 209.84 217.191C211.024 214.73 214.574 214.107 215.727 211.584C218.063 204.763 212.799 196.042 212.207 189.189C211.055 178.007 208.687 172.401 197.506 168.04" stroke="url(#paint22_radial_26_18067)" stroke-miterlimit="10"/>
<path d="M189.874 175.516C195.169 178.63 212.799 181.122 218.094 179.876C224.573 178.63 224.573 173.647 228.684 169.94C231.643 166.203 235.163 164.334 239.274 161.219" stroke="url(#paint23_radial_26_18067)" stroke-miterlimit="10"/>
<path d="M198.689 160.596C207.504 159.973 226.909 156.235 229.868 168.04" stroke="url(#paint24_radial_26_18067)" stroke-miterlimit="10"/>
<path d="M218.094 148.76C222.205 150.629 230.646 151.252 234.758 149.383" stroke="url(#paint25_radial_26_18067)" stroke-miterlimit="10"/>
<path d="M216.318 199.125C220.43 196.633 225.164 194.141 230.428 194.764C236.315 196.01 236.315 199.125 241.61 202.209C243.946 202.832 256.904 205.323 258.648 204.078C263.943 200.34 255.533 196.602 262.012 193.519" stroke="url(#paint26_radial_26_18067)" stroke-miterlimit="10"/>
<path d="M198.097 247.653C198.097 246.407 207.504 225.881 208.096 225.258C209.279 223.389 218.094 230.242 218.686 230.242C222.206 230.865 229.276 230.242 232.796 229.619C239.866 227.75 253.384 220.274 256.343 235.194C258.118 245.753 241.05 246.999 255.72 253.851" stroke="url(#paint27_radial_26_18067)" stroke-miterlimit="10"/>
<path d="M235.754 229.619C246.905 231.487 240.458 252.014 250.456 250.145" stroke="url(#paint28_radial_26_18067)" stroke-miterlimit="10"/>
<path d="M209.84 265.064C217.502 267.556 220.43 264.442 227.501 263.819C233.948 263.196 242.389 268.802 250.02 265.687" stroke="url(#paint29_radial_26_18067)" stroke-miterlimit="10"/>
<path d="M331.003 269.425C341.593 260.703 352.744 272.508 361.59 276.9C369.813 279.984 377.444 289.951 384.514 280.607" stroke="url(#paint30_radial_26_18067)" stroke-miterlimit="10"/>
<path d="M336.89 284.967C352.744 279.361 353.928 298.641 365.11 305.493C367.477 307.362 372.18 309.231 374.516 308.608C378.036 307.362 378.036 302.41 379.811 301.787C389.218 298.672 383.331 306.739 390.993 309.231" stroke="url(#paint31_radial_26_18067)" stroke-miterlimit="10"/>
<path d="M369.844 282.476C373.955 291.789 362.182 284.344 362.182 291.166C362.182 294.28 370.405 295.526 371.588 298.61C372.18 300.479 371.588 304.839 371.588 306.708" stroke="url(#paint32_radial_26_18067)" stroke-miterlimit="10"/>
<path d="M359.223 300.51C356.264 310.477 355.703 315.43 363.926 321.659C371.557 327.889 379.78 329.135 376.26 341.563C375.077 345.923 370.965 345.923 372.149 352.122C372.741 355.859 379.188 360.812 382.147 362.712C385.667 365.826 389.186 366.449 391.554 370.156C394.513 373.894 390.962 376.385 395.073 379.5" stroke="url(#paint33_radial_26_18067)" stroke-miterlimit="10"/>
<path d="M360.998 318.545C356.887 324.12 352.184 322.282 346.889 322.874C341.593 322.874 338.043 325.366 332.779 326.612C321.005 329.104 316.894 320.414 306.303 330.973" stroke="url(#paint34_radial_26_18067)" stroke-miterlimit="10"/>
<path d="M305.12 361.435C309.823 370.779 311.599 365.172 315.71 362.058C321.005 358.943 325.708 355.828 331.595 352.713C345.705 345.269 338.666 336.548 345.705 324.089" stroke="url(#paint35_radial_26_18067)" stroke-miterlimit="10"/>
<path d="M305.743 353.99C313.965 354.613 316.333 341.531 306.895 343.4" stroke="url(#paint36_radial_26_18067)" stroke-miterlimit="10"/>
<path d="M320.071 382.739C326.923 375.295 329.477 365.203 328.667 355.236" stroke="url(#paint37_radial_26_18067)" stroke-miterlimit="10"/>
<path d="M328.044 365.172C341.593 364.549 354.519 376.354 362.151 386.913C370.374 398.126 381.555 396.849 393.89 393.143" stroke="url(#paint38_radial_26_18067)" stroke-miterlimit="10"/>
<path d="M394.513 382.614C387.442 380.745 380.403 389.467 388.034 393.173" stroke="url(#paint39_radial_26_18067)" stroke-miterlimit="10"/>
<path d="M379.219 240.801C375.7 232.08 365.701 231.457 362.182 224.635C358.07 216.537 365.11 205.355 371.588 214.699C379.219 209.093 372.18 199.749 384.546 199.157C392.177 198.534 403.95 203.517 410.99 204.763C414.509 205.386 415.693 207.878 419.213 207.878C423.947 208.501 428.619 204.763 433.322 206.009C438.618 207.255 439.209 210.339 445.096 209.124C452.758 207.878 454.503 205.417 448.616 199.188C446.84 196.696 442.137 200.434 440.393 195.45C440.985 196.073 441.545 183.614 441.545 184.237C442.729 178.039 438.618 177.385 446.28 174.27C452.136 171.778 456.87 176.762 462.134 177.385C473.316 178.631 479.203 174.893 487.426 169.94C494.496 166.203 495.648 164.334 502.127 169.317C505.647 172.432 505.647 175.516 510.942 178.662C515.645 181.745 520.94 183.614 526.827 182.368C535.642 180.499 532.122 177.385 540.937 182.368C549.16 186.106 549.783 190.467 555.638 196.073C559.189 199.78 565.637 203.517 570.371 204.763C575.074 206.632 576.227 204.14 581.522 204.14C587.409 204.14 590.928 208.501 596.223 210.962C599.743 212.83 605.038 212.83 609.15 214.699C615.036 217.783 617.372 231.488 612.669 236.44C607.966 242.67 600.335 235.817 595.632 245.161C593.856 249.522 596.784 250.768 593.296 253.883C590.337 257.62 586.225 252.637 584.45 259.489C579.155 273.786 600.927 269.425 590.337 280.607C583.889 287.46 572.707 284.968 566.26 291.82C563.892 294.312 562.74 298.019 560.965 300.542C558.037 303.033 554.486 299.919 553.925 305.525C553.302 315.461 566.26 310.509 569.779 315.461C575.666 325.397 562.148 326.02 557.445 327.297C546.263 328.543 547.447 331.035 546.263 342.217C544.488 357.759 529.225 367.104 522.155 380.808C518.043 388.876 518.635 391.367 508.637 389.499C505.117 388.876 502.158 385.761 498.639 385.761C495.119 385.761 491.568 389.499 488.048 390.121C488.048 398.22 500.383 401.303 501.566 408.779C502.75 414.977 494.527 417.469 492.752 425.567" stroke="url(#paint40_radial_26_18067)" stroke-miterlimit="10"/>
<path d="M415.101 278.738C423.324 266.933 427.436 282.476 432.731 285.59C443.882 291.82 443.321 276.9 449.768 274.409C457.991 271.917 461.542 284.376 466.245 287.459C469.765 289.951 474.468 289.328 478.58 292.443C482.691 294.935 484.467 299.887 488.578 302.41C493.873 306.74 508.575 312.346 506.239 321.69C505.616 322.936 499.168 327.297 498.016 329.166C495.649 332.872 499.76 334.741 495.057 337.887C487.395 342.216 481.539 335.395 478.019 331.657C472.724 326.051 465.685 320.476 458.023 316.738C452.728 314.869 444.505 314.246 440.393 314.869C433.323 315.492 433.323 317.361 427.436 321.721" stroke="url(#paint41_radial_26_18067)" stroke-miterlimit="10"/>
<path d="M478.611 331.595C476.836 337.202 470.388 342.777 470.98 349.007C471.572 352.744 478.611 361.434 480.386 365.795C482.162 370.125 486.273 374.516 487.426 378.223C488.609 383.206 485.058 386.321 488.017 391.305" stroke="url(#paint42_radial_26_18067)" stroke-miterlimit="10"/>
<path d="M506.27 319.167C513.309 317.921 515.084 324.743 520.971 325.366C528.602 325.989 528.01 319.79 533.306 315.43C550.343 302.379 543.273 325.989 549.16 330.349" stroke="url(#paint43_radial_26_18067)" stroke-miterlimit="10"/>
<path d="M432.731 284.344C433.322 275.654 428.027 269.425 427.436 260.703C426.844 242.669 438.617 255.097 447.432 255.72C451.544 255.72 453.319 252.605 458.614 253.228C469.204 255.097 468.021 261.326 472.724 265.687C478.611 271.262 486.834 267.556 495.088 272.508C500.975 276.246 506.27 292.411 515.676 291.165C520.379 290.542 519.196 285.559 522.124 283.098C525.643 279.984 528.011 279.984 532.714 278.115C536.825 275.654 532.122 272.508 539.192 273.131C543.304 273.131 546.263 279.361 549.191 278.738C558.037 276.246 552.71 266.933 565.668 268.802C574.514 270.047 585.259 274.408 593.482 275.654" stroke="url(#paint44_radial_26_18067)" stroke-miterlimit="10"/>
<path d="M531.561 277.492C528.602 291.165 545.671 281.198 545.671 292.411C545.671 304.839 532.122 293.034 527.45 293.657C526.266 293.657 513.901 304.216 513.901 304.839C514.493 311.069 530.97 314.806 519.788 325.365" stroke="url(#paint45_radial_26_18067)" stroke-miterlimit="10"/>
<path d="M535.673 296.772C540.376 309.854 545.079 300.51 553.925 303.625" stroke="url(#paint46_radial_26_18067)" stroke-miterlimit="10"/>
<path d="M569.187 324.119C578.002 323.496 579.186 330.972 583.889 336.578C586.848 339.693 593.887 339.07 588.592 344.645C586.848 346.514 578.002 344.022 574.482 344.645C553.894 349.629 585.073 366.417 578.594 380.714C576.818 384.421 565.637 397.503 562.117 399.994C556.822 403.701 546.232 401.24 549.16 411.799C551.496 419.275 562.678 418.652 559.75 429.211C557.383 437.932 549.16 435.44 543.273 434.817" stroke="url(#paint47_radial_26_18067)" stroke-miterlimit="10"/>
<path d="M588 337.825C596.815 331.595 601.549 344.677 603.294 351.499C605.661 360.189 603.294 367.664 609.181 373.271C616.251 380.746 619.771 378.223 621.515 389.436C624.474 406.224 627.402 401.864 642.695 407.47C650.918 411.177 655.03 415.538 664.467 416.161C666.243 416.161 671.507 418.029 673.282 416.783C678.577 413.046 673.282 408.093 675.057 405.57C681.536 396.226 686.831 413.046 693.87 413.669C704.461 413.669 705.644 402.487 710.347 396.88C715.642 390.682 726.233 387.567 733.272 392.551L740.342 404.356C739.159 410.585 733.864 408.716 730.344 413.077C727.385 416.815 729.752 420.552 728.569 424.913C727.385 429.242 723.865 431.734 721.529 436.095C718.01 444.816 720.346 454.129 713.306 460.982" stroke="url(#paint48_radial_26_18067)" stroke-miterlimit="10"/>
<path d="M620.331 385.075C632.074 372.647 659.733 403.733 675.587 403.733" stroke="url(#paint49_radial_26_18067)" stroke-miterlimit="10"/>
<path d="M681.505 404.979C687.952 394.42 697.39 400.026 705.613 404.979" stroke="url(#paint50_radial_26_18067)" stroke-miterlimit="10"/>
<path d="M674.248 403.109C674.84 406.224 676.771 414.914 677.954 417.437C679.699 421.767 683.81 423.636 685.585 427.996C688.544 435.472 680.882 444.785 689.105 451.014" stroke="url(#paint51_radial_26_18067)" stroke-miterlimit="10"/>
<path d="M677.207 418.06C682.502 417.437 690.911 418.06 695.615 421.144C697.951 422.39 696.206 426.127 699.134 427.996C700.91 428.619 703.838 427.373 705.613 427.996C707.949 429.242 710.908 427.996 712.652 430.457C714.428 434.817 709.724 436.063 710.316 438.555C710.908 443.539 713.836 446.654 717.978 449.737" stroke="url(#paint52_radial_26_18067)" stroke-miterlimit="10"/>
<path d="M736.013 399.402C743.675 398.157 754.421 405.601 755.013 413.668C755.605 421.766 746.79 424.258 746.79 431.702C747.382 438.555 757.38 441.047 761.491 446.653C763.828 449.114 764.419 452.26 766.787 455.343C769.154 457.212 776.193 457.212 775.632 462.196C773.857 475.869 744.454 462.819 757.38 487.705C761.492 495.804 764.419 498.264 766.195 507.577C766.787 511.284 766.195 516.922 767.97 520.628C769.746 524.989 773.857 526.858 775.01 531.841" stroke="url(#paint53_radial_26_18067)" stroke-miterlimit="10"/>
<path d="M772.642 583.484C782.641 580.338 786.752 592.174 795.567 590.928" stroke="url(#paint54_radial_26_18067)" stroke-miterlimit="10"/>
<path d="M771.459 466.526C770.275 475.839 775.57 473.378 778.498 477.116C782.018 481.445 780.865 486.429 783.201 490.79C788.496 498.888 792.047 492.659 799.086 491.413C807.901 490.79 806.157 492.659 809.085 499.511C812.604 508.824 824.347 518.168 811.421 520.006C806.718 520.629 802.014 516.922 797.903 520.006C794.383 523.152 794.383 531.219 792.608 534.957" stroke="url(#paint55_radial_26_18067)" stroke-miterlimit="10"/>
<path d="M776.162 459.735C781.457 454.752 781.457 449.145 789.711 453.506C796.19 457.212 792.078 460.358 795.006 465.934C798.526 471.54 804.444 470.917 807.372 476.492C809.147 480.853 807.372 485.214 810.331 489.574C815.034 498.265 826.185 499.51 827.96 511.315C829.735 520.628 817.37 528.727 812.698 518.791" stroke="url(#paint56_radial_26_18067)" stroke-miterlimit="10"/>
<path d="M826.746 518.792C827.337 523.152 831.449 527.482 831.449 531.873C831.449 538.726 828.49 537.449 824.379 541.186C821.451 544.301 820.267 547.385 817.339 550.531C813.82 552.991 810.3 548.662 809.116 555.483" stroke="url(#paint57_radial_26_18067)" stroke-miterlimit="10"/>
<path d="M785.6 451.637C789.119 442.947 797.934 448.491 803.229 451.014C803.821 445.408 807.932 439.801 814.411 444.162C819.706 447.245 815.563 454.721 820.89 458.427" stroke="url(#paint58_radial_26_18067)" stroke-miterlimit="10"/>
<path d="M613.884 220.274C619.74 217.159 619.74 221.52 623.882 223.389C627.994 225.258 630.953 227.095 635.656 228.964C639.176 230.21 646.807 232.702 649.205 235.816C651.541 238.931 650.389 242.669 651.541 245.753C657.428 258.834 665.651 255.066 676.833 256.966C690.943 259.457 691.535 270.639 701.533 276.246C710.939 281.198 729.161 279.329 739.751 281.821C747.413 283.69 757.411 286.182 765.042 284.313C767.378 283.69 770.306 280.544 773.265 279.329C778.56 278.084 780.896 278.706 785.6 276.246C787.936 274.377 795.006 269.393 795.598 266.902C797.373 261.918 791.487 259.426 792.67 255.689C794.446 250.113 796.782 253.197 800.893 251.951C802.668 251.328 804.413 253.82 806.188 253.197C808.555 252.574 808.555 249.49 810.3 248.867C815.595 246.998 829.704 247.621 832.04 242.015C840.263 223.358 793.823 239.523 800.301 220.243C803.229 210.899 819.706 221.489 818.523 203.454C817.931 197.225 805.005 186.666 813.227 181.682C818.522 178.568 830.265 186.666 836.152 187.912C847.926 190.404 853.19 192.241 859.668 203.454C863.78 211.521 865.555 214.044 874.37 217.128C879.104 218.997 884.368 218.374 889.663 221.489C893.183 223.98 895.55 229.587 898.478 231.456C907.884 236.408 931.401 215.913 927.881 240.177C926.729 248.244 919.658 248.867 917.291 254.474C914.955 263.164 926.137 266.31 923.77 273.754C922.617 278.115 917.291 277.492 914.363 279.329C910.843 281.198 909.66 283.067 906.14 286.182C901.437 289.888 890.847 291.788 891.439 300.478" stroke="url(#paint59_radial_26_18067)" stroke-miterlimit="10"/>
<path d="M912.027 316.052C913.802 311.723 917.914 311.1 922.025 311.723" stroke="url(#paint60_radial_26_18067)" stroke-miterlimit="10"/>
<path d="M802.637 217.783C793.199 197.88 772.642 221.521 760.277 220.275C752.645 219.652 746.759 215.914 740.28 212.83C731.434 208.47 724.395 212.207 716.172 210.339C706.174 208.47 700.287 198.534 690.88 196.042C687.36 195.419 679.698 192.927 676.77 196.665C673.251 202.24 680.882 204.763 680.29 208.47C678.515 219.652 650.295 203.517 640.297 205.978C634.441 207.847 623.82 214.699 620.331 220.275" stroke="url(#paint61_radial_26_18067)" stroke-miterlimit="10"/>
<path d="M729.659 365V356.564H730.487V360.224H731.903L734.183 356.564H735.131L732.599 360.548V360.572L735.299 365H734.327L731.903 360.968H730.487V365H729.659ZM736.427 365V358.964H737.219V362.924C737.219 363.476 737.207 363.776 737.183 363.824H737.207C737.239 363.768 737.447 363.468 737.831 362.924L740.795 358.964H741.575V365H740.771V361.028C740.771 360.924 740.771 360.804 740.771 360.668C740.779 360.532 740.787 360.416 740.795 360.32C740.803 360.216 740.807 360.16 740.807 360.152H740.783C740.783 360.168 740.747 360.224 740.675 360.32C740.611 360.416 740.523 360.536 740.411 360.68C740.307 360.824 740.227 360.94 740.171 361.028L737.207 365H736.427ZM745.017 365V359.684H742.821V358.964H748.041V359.684H745.833V365H745.017ZM748.708 363.38C748.708 361.98 749.932 361.28 752.38 361.28H752.74V361.112C752.74 360.072 752.244 359.552 751.252 359.552C750.636 359.552 750.064 359.744 749.536 360.128L749.164 359.504C749.404 359.296 749.72 359.132 750.112 359.012C750.504 358.884 750.9 358.82 751.3 358.82C752.028 358.82 752.584 359.02 752.968 359.42C753.36 359.812 753.556 360.384 753.556 361.136V365H752.776V364.292L752.812 363.788H752.788C752.62 364.172 752.352 364.496 751.984 364.76C751.624 365.016 751.212 365.144 750.748 365.144C750.196 365.144 749.716 364.988 749.308 364.676C748.908 364.364 748.708 363.932 748.708 363.38ZM749.536 363.308C749.536 363.612 749.656 363.88 749.896 364.112C750.136 364.344 750.468 364.46 750.892 364.46C751.444 364.46 751.888 364.228 752.224 363.764C752.568 363.3 752.74 362.78 752.74 362.204V361.928H752.392C752.136 361.928 751.912 361.932 751.72 361.94C751.536 361.948 751.292 361.98 750.988 362.036C750.692 362.084 750.448 362.152 750.256 362.24C750.064 362.328 749.896 362.464 749.752 362.648C749.608 362.832 749.536 363.052 749.536 363.308ZM759.119 357.788C758.807 358.044 758.435 358.172 758.003 358.172C757.571 358.172 757.199 358.044 756.887 357.788C756.575 357.532 756.419 357.188 756.419 356.756V356.552H757.127V356.732C757.127 356.988 757.211 357.192 757.379 357.344C757.555 357.488 757.763 357.56 758.003 357.56C758.243 357.56 758.451 357.488 758.627 357.344C758.803 357.192 758.891 356.984 758.891 356.72V356.552H759.587V356.756C759.587 357.188 759.431 357.532 759.119 357.788ZM755.435 365V358.964H756.227V362.924C756.227 363.476 756.215 363.776 756.191 363.824H756.215C756.247 363.768 756.455 363.468 756.839 362.924L759.803 358.964H760.583V365H759.779V361.028C759.779 360.924 759.779 360.804 759.779 360.668C759.787 360.532 759.795 360.416 759.803 360.32C759.811 360.216 759.815 360.16 759.815 360.152H759.791C759.791 360.168 759.755 360.224 759.683 360.32C759.619 360.416 759.531 360.536 759.419 360.68C759.315 360.824 759.235 360.94 759.179 361.028L756.215 365H755.435Z" fill="black"/>
<path d="M746.734 346.816C749.349 344.515 754 339.814 754 335.5C754 333.113 753.052 330.824 751.364 329.136C749.676 327.448 747.387 326.5 745 326.5C742.613 326.5 740.324 327.448 738.636 329.136C736.948 330.824 736 333.113 736 335.5C736 339.814 740.65 344.515 743.266 346.816C743.743 347.242 744.36 347.477 745 347.477C745.64 347.477 746.257 347.242 746.734 346.816ZM742 335.5C742 334.704 742.316 333.941 742.879 333.379C743.441 332.816 744.204 332.5 745 332.5C745.796 332.5 746.559 332.816 747.121 333.379C747.684 333.941 748 334.704 748 335.5C748 336.296 747.684 337.059 747.121 337.621C746.559 338.184 745.796 338.5 745 338.5C744.204 338.5 743.441 338.184 742.879 337.621C742.316 337.059 742 336.296 742 335.5Z" fill="#870E00"/>
<path d="M666.734 122.816C669.349 120.515 674 115.814 674 111.5C674 109.113 673.052 106.824 671.364 105.136C669.676 103.448 667.387 102.5 665 102.5C662.613 102.5 660.324 103.448 658.636 105.136C656.948 106.824 656 109.113 656 111.5C656 115.814 660.65 120.515 663.266 122.816C663.743 123.242 664.36 123.477 665 123.477C665.64 123.477 666.257 123.242 666.734 122.816ZM662 111.5C662 110.704 662.316 109.941 662.879 109.379C663.441 108.816 664.204 108.5 665 108.5C665.796 108.5 666.559 108.816 667.121 109.379C667.684 109.941 668 110.704 668 111.5C668 112.296 667.684 113.059 667.121 113.621C666.559 114.184 665.796 114.5 665 114.5C664.204 114.5 663.441 114.184 662.879 113.621C662.316 113.059 662 112.296 662 111.5Z" fill="#870E00"/>
<path d="M646.538 141V132.564H649.454C650.214 132.564 650.838 132.796 651.326 133.26C651.814 133.724 652.058 134.34 652.058 135.108C652.058 135.884 651.814 136.508 651.326 136.98C650.838 137.452 650.214 137.688 649.454 137.688H647.366V141H646.538ZM647.366 136.944H649.346C649.914 136.944 650.366 136.78 650.702 136.452C651.038 136.124 651.206 135.676 651.206 135.108C651.206 134.548 651.038 134.108 650.702 133.788C650.374 133.468 649.926 133.308 649.358 133.308H647.366V136.944ZM652.851 137.952C652.851 137.064 653.159 136.32 653.775 135.72C654.391 135.12 655.143 134.82 656.031 134.82C656.919 134.82 657.671 135.12 658.287 135.72C658.911 136.32 659.223 137.064 659.223 137.952C659.223 138.856 658.911 139.616 658.287 140.232C657.671 140.84 656.919 141.144 656.031 141.144C655.143 141.144 654.391 140.84 653.775 140.232C653.159 139.616 652.851 138.856 652.851 137.952ZM653.691 137.952C653.691 138.656 653.915 139.24 654.363 139.704C654.819 140.168 655.375 140.4 656.031 140.4C656.687 140.4 657.243 140.168 657.699 139.704C658.155 139.24 658.383 138.656 658.383 137.952C658.383 137.272 658.155 136.704 657.699 136.248C657.243 135.784 656.687 135.552 656.031 135.552C655.375 135.552 654.819 135.784 654.363 136.248C653.915 136.704 653.691 137.272 653.691 137.952ZM660.339 137.988C660.339 137.068 660.643 136.312 661.251 135.72C661.859 135.12 662.611 134.82 663.507 134.82C663.923 134.82 664.331 134.896 664.731 135.048C665.131 135.192 665.459 135.404 665.715 135.684L665.295 136.296C665.079 136.072 664.811 135.892 664.491 135.756C664.179 135.62 663.859 135.552 663.531 135.552C662.859 135.552 662.299 135.78 661.851 136.236C661.403 136.692 661.179 137.276 661.179 137.988C661.179 138.692 661.403 139.272 661.851 139.728C662.307 140.176 662.875 140.4 663.555 140.4C663.907 140.4 664.259 140.328 664.611 140.184C664.963 140.032 665.255 139.828 665.487 139.572L665.859 140.184C665.595 140.48 665.251 140.716 664.827 140.892C664.411 141.06 663.971 141.144 663.507 141.144C662.603 141.144 661.847 140.852 661.239 140.268C660.639 139.676 660.339 138.916 660.339 137.988ZM666.703 137.988C666.703 137.068 667.007 136.312 667.615 135.72C668.223 135.12 668.975 134.82 669.871 134.82C670.287 134.82 670.695 134.896 671.095 135.048C671.495 135.192 671.823 135.404 672.079 135.684L671.659 136.296C671.443 136.072 671.175 135.892 670.855 135.756C670.543 135.62 670.223 135.552 669.895 135.552C669.223 135.552 668.663 135.78 668.215 136.236C667.767 136.692 667.543 137.276 667.543 137.988C667.543 138.692 667.767 139.272 668.215 139.728C668.671 140.176 669.239 140.4 669.919 140.4C670.271 140.4 670.623 140.328 670.975 140.184C671.327 140.032 671.619 139.828 671.851 139.572L672.223 140.184C671.959 140.48 671.615 140.716 671.191 140.892C670.775 141.06 670.335 141.144 669.871 141.144C668.967 141.144 668.211 140.852 667.603 140.268C667.003 139.676 666.703 138.916 666.703 137.988ZM673.615 141V134.964H674.407V138.924C674.407 139.476 674.395 139.776 674.371 139.824H674.395C674.427 139.768 674.635 139.468 675.019 138.924L677.983 134.964H678.763V141H677.959V137.028C677.959 136.924 677.959 136.804 677.959 136.668C677.967 136.532 677.975 136.416 677.983 136.32C677.991 136.216 677.995 136.16 677.995 136.152H677.971C677.971 136.168 677.935 136.224 677.863 136.32C677.799 136.416 677.711 136.536 677.599 136.68C677.495 136.824 677.415 136.94 677.359 137.028L674.395 141H673.615ZM680.092 141L681.544 138.924L681.82 138.564V138.54C681.436 138.46 681.108 138.268 680.836 137.964C680.564 137.652 680.428 137.264 680.428 136.8C680.428 136.208 680.62 135.756 681.004 135.444C681.396 135.124 681.916 134.964 682.564 134.964H684.688V141H683.872V138.684H682.624L681.04 141H680.092ZM682.66 138.048H683.872V135.588H682.72C681.752 135.588 681.268 135.992 681.268 136.8C681.268 137.192 681.396 137.5 681.652 137.724C681.916 137.94 682.252 138.048 682.66 138.048Z" fill="black"/>
<path d="M492.734 217.816C495.349 215.515 500 210.814 500 206.5C500 204.113 499.052 201.824 497.364 200.136C495.676 198.448 493.387 197.5 491 197.5C488.613 197.5 486.324 198.448 484.636 200.136C482.948 201.824 482 204.113 482 206.5C482 210.814 486.65 215.515 489.266 217.816C489.743 218.242 490.36 218.477 491 218.477C491.64 218.477 492.257 218.242 492.734 217.816ZM488 206.5C488 205.704 488.316 204.941 488.879 204.379C489.441 203.816 490.204 203.5 491 203.5C491.796 203.5 492.559 203.816 493.121 204.379C493.684 204.941 494 205.704 494 206.5C494 207.296 493.684 208.059 493.121 208.621C492.559 209.184 491.796 209.5 491 209.5C490.204 209.5 489.441 209.184 488.879 208.621C488.316 208.059 488 207.296 488 206.5Z" fill="#870E00"/>
<path d="M464.292 236V227.564H465.12V231.224H466.536L468.816 227.564H469.764L467.232 231.548V231.572L469.932 236H468.96L466.536 231.968H465.12V236H464.292ZM470.626 234.38C470.626 232.98 471.85 232.28 474.298 232.28H474.658V232.112C474.658 231.072 474.162 230.552 473.17 230.552C472.554 230.552 471.982 230.744 471.454 231.128L471.082 230.504C471.322 230.296 471.638 230.132 472.03 230.012C472.422 229.884 472.818 229.82 473.218 229.82C473.946 229.82 474.502 230.02 474.886 230.42C475.278 230.812 475.474 231.384 475.474 232.136V236H474.694V235.292L474.73 234.788H474.706C474.538 235.172 474.27 235.496 473.902 235.76C473.542 236.016 473.13 236.144 472.666 236.144C472.114 236.144 471.634 235.988 471.226 235.676C470.826 235.364 470.626 234.932 470.626 234.38ZM471.454 234.308C471.454 234.612 471.574 234.88 471.814 235.112C472.054 235.344 472.386 235.46 472.81 235.46C473.362 235.46 473.806 235.228 474.142 234.764C474.486 234.3 474.658 233.78 474.658 233.204V232.928H474.31C474.054 232.928 473.83 232.932 473.638 232.94C473.454 232.948 473.21 232.98 472.906 233.036C472.61 233.084 472.366 233.152 472.174 233.24C471.982 233.328 471.814 233.464 471.67 233.648C471.526 233.832 471.454 234.052 471.454 234.308ZM476.741 235.268L477.173 234.704C477.645 235.2 478.185 235.448 478.793 235.448C479.193 235.448 479.533 235.348 479.813 235.148C480.101 234.94 480.245 234.648 480.245 234.272C480.245 233.56 479.757 233.204 478.781 233.204H478.049V232.556H478.685C479.109 232.556 479.437 232.472 479.669 232.304C479.909 232.128 480.029 231.872 480.029 231.536C480.029 231.2 479.917 230.948 479.693 230.78C479.469 230.604 479.165 230.516 478.781 230.516C478.253 230.516 477.761 230.696 477.305 231.056L476.945 230.48C477.473 230.04 478.125 229.82 478.901 229.82C479.485 229.82 479.957 229.96 480.317 230.24C480.685 230.52 480.869 230.92 480.869 231.44C480.869 232.12 480.561 232.58 479.945 232.82V232.844C480.289 232.932 480.565 233.1 480.773 233.348C480.981 233.596 481.085 233.912 481.085 234.296C481.085 234.88 480.865 235.336 480.425 235.664C479.993 235.984 479.465 236.144 478.841 236.144C478.041 236.144 477.341 235.852 476.741 235.268ZM482.098 234.38C482.098 232.98 483.322 232.28 485.77 232.28H486.13V232.112C486.13 231.072 485.634 230.552 484.642 230.552C484.026 230.552 483.454 230.744 482.926 231.128L482.554 230.504C482.794 230.296 483.11 230.132 483.502 230.012C483.894 229.884 484.29 229.82 484.69 229.82C485.418 229.82 485.974 230.02 486.358 230.42C486.75 230.812 486.946 231.384 486.946 232.136V236H486.166V235.292L486.202 234.788H486.178C486.01 235.172 485.742 235.496 485.374 235.76C485.014 236.016 484.602 236.144 484.138 236.144C483.586 236.144 483.106 235.988 482.698 235.676C482.298 235.364 482.098 234.932 482.098 234.38ZM482.926 234.308C482.926 234.612 483.046 234.88 483.286 235.112C483.526 235.344 483.858 235.46 484.282 235.46C484.834 235.46 485.278 235.228 485.614 234.764C485.958 234.3 486.13 233.78 486.13 233.204V232.928H485.782C485.526 232.928 485.302 232.932 485.11 232.94C484.926 232.948 484.682 232.98 484.378 233.036C484.082 233.084 483.838 233.152 483.646 233.24C483.454 233.328 483.286 233.464 483.142 233.648C482.998 233.832 482.926 234.052 482.926 234.308ZM488.094 236L490.206 232.856L488.262 229.964H489.222L490.518 231.992L490.722 232.34H490.746C490.818 232.212 490.886 232.096 490.95 231.992L492.246 229.964H493.194L491.25 232.856L493.374 236H492.414L490.95 233.732L490.746 233.396H490.722C490.658 233.508 490.59 233.62 490.518 233.732L489.042 236H488.094ZM493.96 232.988C493.96 232.068 494.264 231.312 494.872 230.72C495.48 230.12 496.232 229.82 497.128 229.82C497.544 229.82 497.952 229.896 498.352 230.048C498.752 230.192 499.08 230.404 499.336 230.684L498.916 231.296C498.7 231.072 498.432 230.892 498.112 230.756C497.8 230.62 497.48 230.552 497.152 230.552C496.48 230.552 495.92 230.78 495.472 231.236C495.024 231.692 494.8 232.276 494.8 232.988C494.8 233.692 495.024 234.272 495.472 234.728C495.928 235.176 496.496 235.4 497.176 235.4C497.528 235.4 497.88 235.328 498.232 235.184C498.584 235.032 498.876 234.828 499.108 234.572L499.48 235.184C499.216 235.48 498.872 235.716 498.448 235.892C498.032 236.06 497.592 236.144 497.128 236.144C496.224 236.144 495.468 235.852 494.86 235.268C494.26 234.676 493.96 233.916 493.96 232.988ZM502.372 236V230.684H500.176V229.964H505.396V230.684H503.188V236H502.372ZM506.063 234.38C506.063 232.98 507.287 232.28 509.735 232.28H510.095V232.112C510.095 231.072 509.599 230.552 508.607 230.552C507.991 230.552 507.419 230.744 506.891 231.128L506.519 230.504C506.759 230.296 507.075 230.132 507.467 230.012C507.859 229.884 508.255 229.82 508.655 229.82C509.383 229.82 509.939 230.02 510.323 230.42C510.715 230.812 510.911 231.384 510.911 232.136V236H510.131V235.292L510.167 234.788H510.143C509.975 235.172 509.707 235.496 509.339 235.76C508.979 236.016 508.567 236.144 508.103 236.144C507.551 236.144 507.071 235.988 506.663 235.676C506.263 235.364 506.063 234.932 506.063 234.38ZM506.891 234.308C506.891 234.612 507.011 234.88 507.251 235.112C507.491 235.344 507.823 235.46 508.247 235.46C508.799 235.46 509.243 235.228 509.579 234.764C509.923 234.3 510.095 233.78 510.095 233.204V232.928H509.747C509.491 232.928 509.267 232.932 509.075 232.94C508.891 232.948 508.647 232.98 508.343 233.036C508.047 233.084 507.803 233.152 507.611 233.24C507.419 233.328 507.251 233.464 507.107 233.648C506.963 233.832 506.891 234.052 506.891 234.308ZM512.79 236V229.964H513.606V232.544H517.134V229.964H517.95V236H517.134V233.264H513.606V236H512.79Z" fill="black"/>
<path d="M466.734 278.816C469.349 276.515 474 271.814 474 267.5C474 265.113 473.052 262.824 471.364 261.136C469.676 259.448 467.387 258.5 465 258.5C462.613 258.5 460.324 259.448 458.636 261.136C456.948 262.824 456 265.113 456 267.5C456 271.814 460.65 276.515 463.266 278.816C463.743 279.242 464.36 279.477 465 279.477C465.64 279.477 466.257 279.242 466.734 278.816ZM462 267.5C462 266.704 462.316 265.941 462.879 265.379C463.441 264.816 464.204 264.5 465 264.5C465.796 264.5 466.559 264.816 467.121 265.379C467.684 265.941 468 266.704 468 267.5C468 268.296 467.684 269.059 467.121 269.621C466.559 270.184 465.796 270.5 465 270.5C464.204 270.5 463.441 270.184 462.879 269.621C462.316 269.059 462 268.296 462 267.5Z" fill="#870E00"/>
<path d="M434.004 296.628L434.4 295.992C434.784 296.264 435.112 296.4 435.384 296.4C435.64 296.4 435.84 296.308 435.984 296.124C436.136 295.94 436.288 295.652 436.44 295.26L433.092 288.564H434.016L436.332 293.268L436.812 294.372H436.836C436.964 293.98 437.088 293.616 437.208 293.28L438.96 288.564H439.848L437.088 295.668C436.704 296.652 436.14 297.144 435.396 297.144C434.956 297.144 434.492 296.972 434.004 296.628ZM439.977 296.268L440.409 295.704C440.881 296.2 441.421 296.448 442.029 296.448C442.429 296.448 442.769 296.348 443.049 296.148C443.337 295.94 443.481 295.648 443.481 295.272C443.481 294.56 442.993 294.204 442.017 294.204H441.285V293.556H441.921C442.345 293.556 442.673 293.472 442.905 293.304C443.145 293.128 443.265 292.872 443.265 292.536C443.265 292.2 443.153 291.948 442.929 291.78C442.705 291.604 442.401 291.516 442.017 291.516C441.489 291.516 440.997 291.696 440.541 292.056L440.181 291.48C440.709 291.04 441.361 290.82 442.137 290.82C442.721 290.82 443.193 290.96 443.553 291.24C443.921 291.52 444.105 291.92 444.105 292.44C444.105 293.12 443.797 293.58 443.181 293.82V293.844C443.525 293.932 443.801 294.1 444.009 294.348C444.217 294.596 444.321 294.912 444.321 295.296C444.321 295.88 444.101 296.336 443.661 296.664C443.229 296.984 442.701 297.144 442.077 297.144C441.277 297.144 440.577 296.852 439.977 296.268ZM445.599 293.58C445.599 292.492 445.775 291.616 446.127 290.952C446.479 290.288 447.131 289.74 448.083 289.308L450.315 288.264L450.615 288.948L448.287 290.016C447.623 290.328 447.143 290.704 446.847 291.144C446.559 291.584 446.395 292.136 446.355 292.8H446.379C446.851 291.952 447.603 291.528 448.635 291.528C449.387 291.528 449.999 291.78 450.471 292.284C450.951 292.78 451.191 293.456 451.191 294.312C451.191 295.144 450.935 295.824 450.423 296.352C449.911 296.88 449.251 297.144 448.443 297.144C447.491 297.144 446.779 296.82 446.307 296.172C445.835 295.524 445.599 294.66 445.599 293.58ZM446.487 294.3C446.487 294.948 446.671 295.464 447.039 295.848C447.407 296.232 447.867 296.424 448.419 296.424C448.971 296.424 449.431 296.236 449.799 295.86C450.167 295.476 450.351 294.964 450.351 294.324C450.351 293.676 450.167 293.164 449.799 292.788C449.439 292.404 448.995 292.212 448.467 292.212C447.883 292.212 447.407 292.412 447.039 292.812C446.671 293.212 446.487 293.708 446.487 294.3ZM452.369 293.988C452.369 293.028 452.653 292.26 453.221 291.684C453.797 291.108 454.509 290.82 455.357 290.82C456.157 290.82 456.777 291.088 457.217 291.624C457.657 292.152 457.877 292.812 457.877 293.604C457.877 293.7 457.869 293.836 457.853 294.012H453.221C453.237 294.756 453.469 295.34 453.917 295.764C454.365 296.188 454.913 296.4 455.561 296.4C456.257 296.4 456.869 296.16 457.397 295.68L457.769 296.304C457.489 296.56 457.145 296.764 456.737 296.916C456.337 297.068 455.937 297.144 455.537 297.144C454.633 297.144 453.877 296.848 453.269 296.256C452.669 295.664 452.369 294.908 452.369 293.988ZM453.257 293.364H457.049C457.025 292.764 456.853 292.304 456.533 291.984C456.213 291.656 455.813 291.492 455.333 291.492C454.813 291.492 454.361 291.656 453.977 291.984C453.593 292.312 453.353 292.772 453.257 293.364ZM459.41 297V290.964H460.226V293.52H461.186L462.998 290.964H463.958L461.858 293.832V293.856L464.198 297H463.202L461.198 294.24H460.226V297H459.41ZM465.351 297V290.964H466.143V294.924C466.143 295.476 466.131 295.776 466.107 295.824H466.131C466.163 295.768 466.371 295.468 466.755 294.924L469.719 290.964H470.499V297H469.695V293.028C469.695 292.924 469.695 292.804 469.695 292.668C469.703 292.532 469.711 292.416 469.719 292.32C469.727 292.216 469.731 292.16 469.731 292.152H469.707C469.707 292.168 469.671 292.224 469.599 292.32C469.535 292.416 469.447 292.536 469.335 292.68C469.231 292.824 469.151 292.94 469.095 293.028L466.131 297H465.351ZM472.033 293.988C472.033 293.068 472.337 292.312 472.945 291.72C473.553 291.12 474.305 290.82 475.201 290.82C475.617 290.82 476.025 290.896 476.425 291.048C476.825 291.192 477.153 291.404 477.409 291.684L476.989 292.296C476.773 292.072 476.505 291.892 476.185 291.756C475.873 291.62 475.553 291.552 475.225 291.552C474.553 291.552 473.993 291.78 473.545 292.236C473.097 292.692 472.873 293.276 472.873 293.988C472.873 294.692 473.097 295.272 473.545 295.728C474.001 296.176 474.569 296.4 475.249 296.4C475.601 296.4 475.953 296.328 476.305 296.184C476.657 296.032 476.949 295.828 477.181 295.572L477.553 296.184C477.289 296.48 476.945 296.716 476.521 296.892C476.105 297.06 475.665 297.144 475.201 297.144C474.297 297.144 473.541 296.852 472.933 296.268C472.333 295.676 472.033 294.916 472.033 293.988ZM480.445 297V291.684H478.249V290.964H483.469V291.684H481.261V297H480.445ZM484.135 295.38C484.135 293.98 485.359 293.28 487.807 293.28H488.167V293.112C488.167 292.072 487.671 291.552 486.679 291.552C486.063 291.552 485.491 291.744 484.963 292.128L484.591 291.504C484.831 291.296 485.147 291.132 485.539 291.012C485.931 290.884 486.327 290.82 486.727 290.82C487.455 290.82 488.011 291.02 488.395 291.42C488.787 291.812 488.983 292.384 488.983 293.136V297H488.203V296.292L488.239 295.788H488.215C488.047 296.172 487.779 296.496 487.411 296.76C487.051 297.016 486.639 297.144 486.175 297.144C485.623 297.144 485.143 296.988 484.735 296.676C484.335 296.364 484.135 295.932 484.135 295.38ZM484.963 295.308C484.963 295.612 485.083 295.88 485.323 296.112C485.563 296.344 485.895 296.46 486.319 296.46C486.871 296.46 487.315 296.228 487.651 295.764C487.995 295.3 488.167 294.78 488.167 294.204V293.928H487.819C487.563 293.928 487.339 293.932 487.147 293.94C486.963 293.948 486.719 293.98 486.415 294.036C486.119 294.084 485.875 294.152 485.683 294.24C485.491 294.328 485.323 294.464 485.179 294.648C485.035 294.832 484.963 295.052 484.963 295.308ZM490.863 297V290.964H491.679V293.544H495.207V290.964H496.023V297H495.207V294.264H491.679V297H490.863Z" fill="black"/>
<path d="M231.734 134.816C234.349 132.515 239 127.814 239 123.5C239 121.113 238.052 118.824 236.364 117.136C234.676 115.448 232.387 114.5 230 114.5C227.613 114.5 225.324 115.448 223.636 117.136C221.948 118.824 221 121.113 221 123.5C221 127.814 225.65 132.515 228.266 134.816C228.743 135.242 229.36 135.477 230 135.477C230.64 135.477 231.257 135.242 231.734 134.816ZM227 123.5C227 122.704 227.316 121.941 227.879 121.379C228.441 120.816 229.204 120.5 230 120.5C230.796 120.5 231.559 120.816 232.121 121.379C232.684 121.941 233 122.704 233 123.5C233 124.296 232.684 125.059 232.121 125.621C231.559 126.184 230.796 126.5 230 126.5C229.204 126.5 228.441 126.184 227.879 125.621C227.316 125.059 227 124.296 227 123.5Z" fill="#870E00"/>
<path d="M205.495 153V144.564H210.271V145.308H206.323V148.068H208.339C209.075 148.068 209.675 148.284 210.139 148.716C210.603 149.148 210.835 149.76 210.835 150.552C210.835 151.288 210.607 151.88 210.151 152.328C209.703 152.776 209.123 153 208.411 153H205.495ZM206.323 152.256H208.291C208.819 152.256 209.231 152.104 209.527 151.8C209.831 151.496 209.983 151.08 209.983 150.552C209.983 150.016 209.827 149.592 209.515 149.28C209.203 148.968 208.791 148.812 208.279 148.812H206.323V152.256ZM211.972 149.988C211.972 149.028 212.256 148.26 212.824 147.684C213.4 147.108 214.112 146.82 214.96 146.82C215.76 146.82 216.38 147.088 216.82 147.624C217.26 148.152 217.48 148.812 217.48 149.604C217.48 149.7 217.472 149.836 217.456 150.012H212.824C212.84 150.756 213.072 151.34 213.52 151.764C213.968 152.188 214.516 152.4 215.164 152.4C215.86 152.4 216.472 152.16 217 151.68L217.372 152.304C217.092 152.56 216.748 152.764 216.34 152.916C215.94 153.068 215.54 153.144 215.14 153.144C214.236 153.144 213.48 152.848 212.872 152.256C212.272 151.664 211.972 150.908 211.972 149.988ZM212.86 149.364H216.652C216.628 148.764 216.456 148.304 216.136 147.984C215.816 147.656 215.416 147.492 214.936 147.492C214.416 147.492 213.964 147.656 213.58 147.984C213.196 148.312 212.956 148.772 212.86 149.364ZM218.281 153.048V152.316C218.777 152.236 219.141 151.912 219.373 151.344C219.605 150.768 219.721 149.916 219.721 148.788V146.964H223.417V153H222.601V147.672H220.513V148.788C220.513 150.212 220.333 151.264 219.973 151.944C219.621 152.616 219.057 152.984 218.281 153.048ZM224.848 151.38C224.848 149.98 226.072 149.28 228.52 149.28H228.88V149.112C228.88 148.072 228.384 147.552 227.392 147.552C226.776 147.552 226.204 147.744 225.676 148.128L225.304 147.504C225.544 147.296 225.86 147.132 226.252 147.012C226.644 146.884 227.04 146.82 227.44 146.82C228.168 146.82 228.724 147.02 229.108 147.42C229.5 147.812 229.696 148.384 229.696 149.136V153H228.916V152.292L228.952 151.788H228.928C228.76 152.172 228.492 152.496 228.124 152.76C227.764 153.016 227.352 153.144 226.888 153.144C226.336 153.144 225.856 152.988 225.448 152.676C225.048 152.364 224.848 151.932 224.848 151.38ZM225.676 151.308C225.676 151.612 225.796 151.88 226.036 152.112C226.276 152.344 226.608 152.46 227.032 152.46C227.584 152.46 228.028 152.228 228.364 151.764C228.708 151.3 228.88 150.78 228.88 150.204V149.928H228.532C228.276 149.928 228.052 149.932 227.86 149.94C227.676 149.948 227.432 149.98 227.128 150.036C226.832 150.084 226.588 150.152 226.396 150.24C226.204 150.328 226.036 150.464 225.892 150.648C225.748 150.832 225.676 151.052 225.676 151.308ZM231.576 155.4V146.964H232.356V147.6L232.32 148.068H232.344C232.528 147.676 232.804 147.372 233.172 147.156C233.548 146.932 233.972 146.82 234.444 146.82C235.252 146.82 235.892 147.112 236.364 147.696C236.836 148.272 237.072 149.032 237.072 149.976C237.072 150.928 236.82 151.696 236.316 152.28C235.812 152.856 235.164 153.144 234.372 153.144C233.948 153.144 233.56 153.04 233.208 152.832C232.856 152.616 232.58 152.32 232.38 151.944H232.356C232.38 152.088 232.392 152.264 232.392 152.472V155.4H231.576ZM232.368 150C232.368 150.648 232.54 151.212 232.884 151.692C233.236 152.172 233.704 152.412 234.288 152.412C234.84 152.412 235.304 152.196 235.68 151.764C236.056 151.324 236.244 150.732 236.244 149.988C236.244 149.26 236.064 148.676 235.704 148.236C235.352 147.788 234.892 147.564 234.324 147.564C233.772 147.564 233.308 147.768 232.932 148.176C232.556 148.584 232.368 149.192 232.368 150ZM238.034 154.512C238.258 154.696 238.498 154.788 238.754 154.788C239.234 154.788 239.618 154.46 239.906 153.804L240.266 152.94L237.758 146.964H238.658L240.422 151.368L240.65 152.004H240.674C240.73 151.78 240.798 151.568 240.878 151.368L242.618 146.964H243.494L240.518 154.26C240.358 154.652 240.126 154.96 239.822 155.184C239.526 155.408 239.182 155.52 238.79 155.52C238.606 155.52 238.422 155.488 238.238 155.424C238.062 155.368 237.934 155.312 237.854 155.256L237.722 155.16L238.034 154.512ZM244.164 149.988C244.164 149.068 244.468 148.312 245.076 147.72C245.684 147.12 246.436 146.82 247.332 146.82C247.748 146.82 248.156 146.896 248.556 147.048C248.956 147.192 249.284 147.404 249.54 147.684L249.12 148.296C248.904 148.072 248.636 147.892 248.316 147.756C248.004 147.62 247.684 147.552 247.356 147.552C246.684 147.552 246.124 147.78 245.676 148.236C245.228 148.692 245.004 149.276 245.004 149.988C245.004 150.692 245.228 151.272 245.676 151.728C246.132 152.176 246.7 152.4 247.38 152.4C247.732 152.4 248.084 152.328 248.436 152.184C248.788 152.032 249.08 151.828 249.312 151.572L249.684 152.184C249.42 152.48 249.076 152.716 248.652 152.892C248.236 153.06 247.796 153.144 247.332 153.144C246.428 153.144 245.672 152.852 245.064 152.268C244.464 151.676 244.164 150.916 244.164 149.988ZM251.076 153V146.964H251.892V149.268H253.2C253.808 149.268 254.312 149.416 254.712 149.712C255.112 150.008 255.312 150.488 255.312 151.152C255.312 151.72 255.132 152.172 254.772 152.508C254.412 152.836 253.88 153 253.176 153H251.076ZM251.892 152.352H253.104C254.016 152.352 254.472 151.948 254.472 151.14C254.472 150.756 254.36 150.456 254.136 150.24C253.912 150.024 253.572 149.916 253.116 149.916H251.892V152.352Z" fill="black"/>
<path d="M553.734 297.816C556.349 295.515 561 290.814 561 286.5C561 284.113 560.052 281.824 558.364 280.136C556.676 278.448 554.387 277.5 552 277.5C549.613 277.5 547.324 278.448 545.636 280.136C543.948 281.824 543 284.113 543 286.5C543 290.814 547.65 295.515 550.266 297.816C550.743 298.242 551.36 298.477 552 298.477C552.64 298.477 553.257 298.242 553.734 297.816ZM549 286.5C549 285.704 549.316 284.941 549.879 284.379C550.441 283.816 551.204 283.5 552 283.5C552.796 283.5 553.559 283.816 554.121 284.379C554.684 284.941 555 285.704 555 286.5C555 287.296 554.684 288.059 554.121 288.621C553.559 289.184 552.796 289.5 552 289.5C551.204 289.5 550.441 289.184 549.879 288.621C549.316 288.059 549 287.296 549 286.5Z" fill="#870E00"/>
<path d="M527.507 316V307.564H528.335V311.224H529.751L532.031 307.564H532.979L530.447 311.548V311.572L533.147 316H532.175L529.751 311.968H528.335V316H527.507ZM534.275 316V309.964H535.067V313.924C535.067 314.476 535.055 314.776 535.031 314.824H535.055C535.087 314.768 535.295 314.468 535.679 313.924L538.643 309.964H539.423V316H538.619V312.028C538.619 311.924 538.619 311.804 538.619 311.668C538.627 311.532 538.635 311.416 538.643 311.32C538.651 311.216 538.655 311.16 538.655 311.152H538.631C538.631 311.168 538.595 311.224 538.523 311.32C538.459 311.416 538.371 311.536 538.259 311.68C538.155 311.824 538.075 311.94 538.019 312.028L535.055 316H534.275ZM541.365 318.4V309.964H542.145V310.6L542.109 311.068H542.133C542.317 310.676 542.593 310.372 542.961 310.156C543.337 309.932 543.761 309.82 544.233 309.82C545.041 309.82 545.681 310.112 546.153 310.696C546.625 311.272 546.861 312.032 546.861 312.976C546.861 313.928 546.609 314.696 546.105 315.28C545.601 315.856 544.953 316.144 544.161 316.144C543.737 316.144 543.349 316.04 542.997 315.832C542.645 315.616 542.369 315.32 542.169 314.944H542.145C542.169 315.088 542.181 315.264 542.181 315.472V318.4H541.365ZM542.157 313C542.157 313.648 542.329 314.212 542.673 314.692C543.025 315.172 543.493 315.412 544.077 315.412C544.629 315.412 545.093 315.196 545.469 314.764C545.845 314.324 546.033 313.732 546.033 312.988C546.033 312.26 545.853 311.676 545.493 311.236C545.141 310.788 544.681 310.564 544.113 310.564C543.561 310.564 543.097 310.768 542.721 311.176C542.345 311.584 542.157 312.192 542.157 313ZM548.431 316V309.964H552.031V310.672H549.247V316H548.431ZM553.283 316V309.964H554.075V313.924C554.075 314.476 554.063 314.776 554.039 314.824H554.063C554.095 314.768 554.303 314.468 554.687 313.924L557.651 309.964H558.431V316H557.627V312.028C557.627 311.924 557.627 311.804 557.627 311.668C557.635 311.532 557.643 311.416 557.651 311.32C557.659 311.216 557.663 311.16 557.663 311.152H557.639C557.639 311.168 557.603 311.224 557.531 311.32C557.467 311.416 557.379 311.536 557.267 311.68C557.163 311.824 557.083 311.94 557.027 312.028L554.063 316H553.283ZM559.76 315.268L560.192 314.704C560.664 315.2 561.204 315.448 561.812 315.448C562.212 315.448 562.552 315.348 562.832 315.148C563.12 314.94 563.264 314.648 563.264 314.272C563.264 313.56 562.776 313.204 561.8 313.204H561.068V312.556H561.704C562.128 312.556 562.456 312.472 562.688 312.304C562.928 312.128 563.048 311.872 563.048 311.536C563.048 311.2 562.936 310.948 562.712 310.78C562.488 310.604 562.184 310.516 561.8 310.516C561.272 310.516 560.78 310.696 560.324 311.056L559.964 310.48C560.492 310.04 561.144 309.82 561.92 309.82C562.504 309.82 562.976 309.96 563.336 310.24C563.704 310.52 563.888 310.92 563.888 311.44C563.888 312.12 563.58 312.58 562.964 312.82V312.844C563.308 312.932 563.584 313.1 563.792 313.348C564 313.596 564.104 313.912 564.104 314.296C564.104 314.88 563.884 315.336 563.444 315.664C563.012 315.984 562.484 316.144 561.86 316.144C561.06 316.144 560.36 315.852 559.76 315.268ZM565.646 316V309.964H566.438V313.924C566.438 314.476 566.426 314.776 566.402 314.824H566.426C566.458 314.768 566.666 314.468 567.05 313.924L570.014 309.964H570.794V316H569.99V312.028C569.99 311.924 569.99 311.804 569.99 311.668C569.998 311.532 570.006 311.416 570.014 311.32C570.022 311.216 570.026 311.16 570.026 311.152H570.002C570.002 311.168 569.966 311.224 569.894 311.32C569.83 311.416 569.742 311.536 569.63 311.68C569.526 311.824 569.446 311.94 569.39 312.028L566.426 316H565.646ZM572.124 316L573.576 313.924L573.852 313.564V313.54C573.468 313.46 573.14 313.268 572.868 312.964C572.596 312.652 572.46 312.264 572.46 311.8C572.46 311.208 572.652 310.756 573.036 310.444C573.428 310.124 573.948 309.964 574.596 309.964H576.72V316H575.904V313.684H574.656L573.072 316H572.124ZM574.692 313.048H575.904V310.588H574.752C573.784 310.588 573.3 310.992 573.3 311.8C573.3 312.192 573.428 312.5 573.684 312.724C573.948 312.94 574.284 313.048 574.692 313.048Z" fill="black"/>
<defs>
<radialGradient id="paint0_radial_26_18067" cx="0" cy="0" r="1" gradientUnits="userSpaceOnUse" gradientTransform="translate(723.718 -242.176) rotate(66.2076) scale(954.548 2473.6)">
<stop stop-color="#890D05"/>
<stop offset="1" stop-color="#F6AB3E"/>
</radialGradient>
<radialGradient id="paint1_radial_26_18067" cx="0" cy="0" r="1" gradientUnits="userSpaceOnUse" gradientTransform="translate(72.9155 261.849) rotate(59.5385) scale(21.1358 64.8373)">
<stop stop-color="#890D05"/>
<stop offset="1" stop-color="#F6AB3E"/>
</radialGradient>
<radialGradient id="paint2_radial_26_18067" cx="0" cy="0" r="1" gradientUnits="userSpaceOnUse" gradientTransform="translate(242.209 27.1983) rotate(86.1305) scale(99.4241 46.9943)">
<stop stop-color="#890D05"/>
<stop offset="1" stop-color="#F6AB3E"/>
</radialGradient>
<radialGradient id="paint3_radial_26_18067" cx="0" cy="0" r="1" gradientUnits="userSpaceOnUse" gradientTransform="translate(215.072 38.3274) rotate(73.7321) scale(54.8178 103.485)">
<stop stop-color="#890D05"/>
<stop offset="1" stop-color="#F6AB3E"/>
</radialGradient>
<radialGradient id="paint4_radial_26_18067" cx="0" cy="0" r="1" gradientUnits="userSpaceOnUse" gradientTransform="translate(168.214 35.9164) rotate(80.701) scale(104.94 117.475)">
<stop stop-color="#890D05"/>
<stop offset="1" stop-color="#F6AB3E"/>
</radialGradient>
<radialGradient id="paint5_radial_26_18067" cx="0" cy="0" r="1" gradientUnits="userSpaceOnUse" gradientTransform="translate(291.186 99.0435) rotate(77.3481) scale(141.518 212.312)">
<stop stop-color="#890D05"/>
<stop offset="1" stop-color="#F6AB3E"/>
</radialGradient>
<radialGradient id="paint6_radial_26_18067" cx="0" cy="0" r="1" gradientUnits="userSpaceOnUse" gradientTransform="translate(102.956 181.747) rotate(81.7253) scale(85.4843 85.4679)">
<stop stop-color="#890D05"/>
<stop offset="1" stop-color="#F6AB3E"/>
</radialGradient>
<radialGradient id="paint7_radial_26_18067" cx="0" cy="0" r="1" gradientUnits="userSpaceOnUse" gradientTransform="translate(136.654 234.267) rotate(47.2305) scale(23.3265 81.6288)">
<stop stop-color="#890D05"/>
<stop offset="1" stop-color="#F6AB3E"/>
</radialGradient>
<radialGradient id="paint8_radial_26_18067" cx="0" cy="0" r="1" gradientUnits="userSpaceOnUse" gradientTransform="translate(129.55 227.107) rotate(50.6042) scale(14.536 50.0488)">
<stop stop-color="#890D05"/>
<stop offset="1" stop-color="#F6AB3E"/>
</radialGradient>
<radialGradient id="paint9_radial_26_18067" cx="0" cy="0" r="1" gradientUnits="userSpaceOnUse" gradientTransform="translate(107.928 173.691) rotate(86.7423) scale(42.3224 16.8564)">
<stop stop-color="#890D05"/>
<stop offset="1" stop-color="#F6AB3E"/>
</radialGradient>
<radialGradient id="paint10_radial_26_18067" cx="0" cy="0" r="1" gradientUnits="userSpaceOnUse" gradientTransform="translate(99.0928 193.753) rotate(68.8123) scale(13.5805 32.1275)">
<stop stop-color="#890D05"/>
<stop offset="1" stop-color="#F6AB3E"/>
</radialGradient>
<radialGradient id="paint11_radial_26_18067" cx="0" cy="0" r="1" gradientUnits="userSpaceOnUse" gradientTransform="translate(150.017 159.482) rotate(84.6986) scale(75.4119 48.7041)">
<stop stop-color="#890D05"/>
<stop offset="1" stop-color="#F6AB3E"/>
</radialGradient>
<radialGradient id="paint12_radial_26_18067" cx="0" cy="0" r="1" gradientUnits="userSpaceOnUse" gradientTransform="translate(171.636 193.759) rotate(71.7418) scale(32.0029 66.8432)">
<stop stop-color="#890D05"/>
<stop offset="1" stop-color="#F6AB3E"/>
</radialGradient>
<radialGradient id="paint13_radial_26_18067" cx="0" cy="0" r="1" gradientUnits="userSpaceOnUse" gradientTransform="translate(164.877 219) rotate(71.8103) scale(23.6026 49.1384)">
<stop stop-color="#890D05"/>
<stop offset="1" stop-color="#F6AB3E"/>
</radialGradient>
<radialGradient id="paint14_radial_26_18067" cx="0" cy="0" r="1" gradientUnits="userSpaceOnUse" gradientTransform="translate(164.43 230.945) rotate(79.8551) scale(24.5349 29.8632)">
<stop stop-color="#890D05"/>
<stop offset="1" stop-color="#F6AB3E"/>
</radialGradient>
<radialGradient id="paint15_radial_26_18067" cx="0" cy="0" r="1" gradientUnits="userSpaceOnUse" gradientTransform="translate(181.334 232.654) rotate(78.672) scale(34.325 46.4094)">
<stop stop-color="#890D05"/>
<stop offset="1" stop-color="#F6AB3E"/>
</radialGradient>
<radialGradient id="paint16_radial_26_18067" cx="0" cy="0" r="1" gradientUnits="userSpaceOnUse" gradientTransform="translate(188.685 249.744) rotate(85.1259) scale(25.9734 15.4363)">
<stop stop-color="#890D05"/>
<stop offset="1" stop-color="#F6AB3E"/>
</radialGradient>
<radialGradient id="paint17_radial_26_18067" cx="0" cy="0" r="1" gradientUnits="userSpaceOnUse" gradientTransform="translate(198.635 267.204) rotate(81.4806) scale(33.6775 34.6377)">
<stop stop-color="#890D05"/>
<stop offset="1" stop-color="#F6AB3E"/>
</radialGradient>
<radialGradient id="paint18_radial_26_18067" cx="0" cy="0" r="1" gradientUnits="userSpaceOnUse" gradientTransform="translate(224.824 277.906) rotate(55.0783) scale(19.9705 65.804)">
<stop stop-color="#890D05"/>
<stop offset="1" stop-color="#F6AB3E"/>
</radialGradient>
<radialGradient id="paint19_radial_26_18067" cx="0" cy="0" r="1" gradientUnits="userSpaceOnUse" gradientTransform="translate(246.155 284.236) rotate(72.6664) scale(14.4379 28.8258)">
<stop stop-color="#890D05"/>
<stop offset="1" stop-color="#F6AB3E"/>
</radialGradient>
<radialGradient id="paint20_radial_26_18067" cx="0" cy="0" r="1" gradientUnits="userSpaceOnUse" gradientTransform="translate(210.232 274.919) rotate(61.1926) scale(11.4677 33.9916)">
<stop stop-color="#890D05"/>
<stop offset="1" stop-color="#F6AB3E"/>
</radialGradient>
<radialGradient id="paint21_radial_26_18067" cx="0" cy="0" r="1" gradientUnits="userSpaceOnUse" gradientTransform="translate(202.494 235.327) rotate(78.0486) scale(43.0994 61.2966)">
<stop stop-color="#890D05"/>
<stop offset="1" stop-color="#F6AB3E"/>
</radialGradient>
<radialGradient id="paint22_radial_26_18067" cx="0" cy="0" r="1" gradientUnits="userSpaceOnUse" gradientTransform="translate(201.184 143.198) rotate(80.3489) scale(90.2938 104.763)">
<stop stop-color="#890D05"/>
<stop offset="1" stop-color="#F6AB3E"/>
</radialGradient>
<radialGradient id="paint23_radial_26_18067" cx="0" cy="0" r="1" gradientUnits="userSpaceOnUse" gradientTransform="translate(222.09 153.87) rotate(56.8731) scale(31.445 101.029)">
<stop stop-color="#890D05"/>
<stop offset="1" stop-color="#F6AB3E"/>
</radialGradient>
<radialGradient id="paint24_radial_26_18067" cx="0" cy="0" r="1" gradientUnits="userSpaceOnUse" gradientTransform="translate(219.022 156.256) rotate(47.3742) scale(16.0157 56.0228)">
<stop stop-color="#890D05"/>
<stop offset="1" stop-color="#F6AB3E"/>
</radialGradient>
<radialGradient id="paint25_radial_26_18067" cx="0" cy="0" r="1" gradientUnits="userSpaceOnUse" gradientTransform="translate(228.961 148.082) rotate(22.7373) scale(6.28525 15.7285)">
<stop stop-color="#890D05"/>
<stop offset="1" stop-color="#F6AB3E"/>
</radialGradient>
<radialGradient id="paint26_radial_26_18067" cx="0" cy="0" r="1" gradientUnits="userSpaceOnUse" gradientTransform="translate(246.117 189.298) rotate(43.575) scale(21.9403 76.916)">
<stop stop-color="#890D05"/>
<stop offset="1" stop-color="#F6AB3E"/>
</radialGradient>
<radialGradient id="paint27_radial_26_18067" cx="0" cy="0" r="1" gradientUnits="userSpaceOnUse" gradientTransform="translate(236.167 213.742) rotate(63.147) scale(44.9575 127.187)">
<stop stop-color="#890D05"/>
<stop offset="1" stop-color="#F6AB3E"/>
</radialGradient>
<radialGradient id="paint28_radial_26_18067" cx="0" cy="0" r="1" gradientUnits="userSpaceOnUse" gradientTransform="translate(245.342 221.627) rotate(79.875) scale(29.0914 35.3428)">
<stop stop-color="#890D05"/>
<stop offset="1" stop-color="#F6AB3E"/>
</radialGradient>
<radialGradient id="paint29_radial_26_18067" cx="0" cy="0" r="1" gradientUnits="userSpaceOnUse" gradientTransform="translate(236.043 262.66) rotate(15.878) scale(14.5318 26.8452)">
<stop stop-color="#890D05"/>
<stop offset="1" stop-color="#F6AB3E"/>
</radialGradient>
<radialGradient id="paint30_radial_26_18067" cx="0" cy="0" r="1" gradientUnits="userSpaceOnUse" gradientTransform="translate(365.9 259.242) rotate(53.6219) scale(31.385 105.211)">
<stop stop-color="#890D05"/>
<stop offset="1" stop-color="#F6AB3E"/>
</radialGradient>
<radialGradient id="paint31_radial_26_18067" cx="0" cy="0" r="1" gradientUnits="userSpaceOnUse" gradientTransform="translate(372.172 274.176) rotate(61.7696) scale(39.7883 116.407)">
<stop stop-color="#890D05"/>
<stop offset="1" stop-color="#F6AB3E"/>
</radialGradient>
<radialGradient id="paint32_radial_26_18067" cx="0" cy="0" r="1" gradientUnits="userSpaceOnUse" gradientTransform="translate(368.487 273.095) rotate(84.2853) scale(33.781 23.4962)">
<stop stop-color="#890D05"/>
<stop offset="1" stop-color="#F6AB3E"/>
</radialGradient>
<radialGradient id="paint33_radial_26_18067" cx="0" cy="0" r="1" gradientUnits="userSpaceOnUse" gradientTransform="translate(381.909 269.934) rotate(83.1491) scale(110.354 91.7513)">
<stop stop-color="#890D05"/>
<stop offset="1" stop-color="#F6AB3E"/>
</radialGradient>
<radialGradient id="paint34_radial_26_18067" cx="0" cy="0" r="1" gradientUnits="userSpaceOnUse" gradientTransform="translate(341.972 313.734) rotate(42.1776) scale(25.6745 89.6813)">
<stop stop-color="#890D05"/>
<stop offset="1" stop-color="#F6AB3E"/>
</radialGradient>
<radialGradient id="paint35_radial_26_18067" cx="0" cy="0" r="1" gradientUnits="userSpaceOnUse" gradientTransform="translate(331.587 307.637) rotate(76.5325) scale(60.6208 96.3854)">
<stop stop-color="#890D05"/>
<stop offset="1" stop-color="#F6AB3E"/>
</radialGradient>
<radialGradient id="paint36_radial_26_18067" cx="0" cy="0" r="1" gradientUnits="userSpaceOnUse" gradientTransform="translate(310.48 339.038) rotate(80.4209) scale(15.1849 17.4916)">
<stop stop-color="#890D05"/>
<stop offset="1" stop-color="#F6AB3E"/>
</radialGradient>
<radialGradient id="paint37_radial_26_18067" cx="0" cy="0" r="1" gradientUnits="userSpaceOnUse" gradientTransform="translate(325.771 344.59) rotate(85.4427) scale(38.2705 21.2792)">
<stop stop-color="#890D05"/>
<stop offset="1" stop-color="#F6AB3E"/>
</radialGradient>
<radialGradient id="paint38_radial_26_18067" cx="0" cy="0" r="1" gradientUnits="userSpaceOnUse" gradientTransform="translate(370.984 353.29) rotate(61.6735) scale(48.2734 141.544)">
<stop stop-color="#890D05"/>
<stop offset="1" stop-color="#F6AB3E"/>
</radialGradient>
<radialGradient id="paint39_radial_26_18067" cx="0" cy="0" r="1" gradientUnits="userSpaceOnUse" gradientTransform="translate(391.11 378.167) rotate(77.2228) scale(15.387 23.2977)">
<stop stop-color="#890D05"/>
<stop offset="1" stop-color="#F6AB3E"/>
</radialGradient>
<radialGradient id="paint40_radial_26_18067" cx="0" cy="0" r="1" gradientUnits="userSpaceOnUse" gradientTransform="translate(526.742 65.9295) rotate(76.1852) scale(370.351 602.853)">
<stop stop-color="#890D05"/>
<stop offset="1" stop-color="#F6AB3E"/>
</radialGradient>
<radialGradient id="paint41_radial_26_18067" cx="0" cy="0" r="1" gradientUnits="userSpaceOnUse" gradientTransform="translate(474.698 248.844) rotate(70.6319) scale(95.8592 210.541)">
<stop stop-color="#890D05"/>
<stop offset="1" stop-color="#F6AB3E"/>
</radialGradient>
<radialGradient id="paint42_radial_26_18067" cx="0" cy="0" r="1" gradientUnits="userSpaceOnUse" gradientTransform="translate(482.077 308.482) rotate(85.8977) scale(83.0357 41.5931)">
<stop stop-color="#890D05"/>
<stop offset="1" stop-color="#F6AB3E"/>
</radialGradient>
<radialGradient id="paint43_radial_26_18067" cx="0" cy="0" r="1" gradientUnits="userSpaceOnUse" gradientTransform="translate(534.24 304.258) rotate(60.2369) scale(30.0555 90.9228)">
<stop stop-color="#890D05"/>
<stop offset="1" stop-color="#F6AB3E"/>
</radialGradient>
<radialGradient id="paint44_radial_26_18067" cx="0" cy="0" r="1" gradientUnits="userSpaceOnUse" gradientTransform="translate(535.713 235.382) rotate(44.033) scale(80.3539 281.884)">
<stop stop-color="#890D05"/>
<stop offset="1" stop-color="#F6AB3E"/>
</radialGradient>
<radialGradient id="paint45_radial_26_18067" cx="0" cy="0" r="1" gradientUnits="userSpaceOnUse" gradientTransform="translate(534.619 258.96) rotate(80.5509) scale(67.3187 76.532)">
<stop stop-color="#890D05"/>
<stop offset="1" stop-color="#F6AB3E"/>
</radialGradient>
<radialGradient id="paint46_radial_26_18067" cx="0" cy="0" r="1" gradientUnits="userSpaceOnUse" gradientTransform="translate(547.576 293.979) rotate(57.6102) scale(11.853 37.6386)">
<stop stop-color="#890D05"/>
<stop offset="1" stop-color="#F6AB3E"/>
</radialGradient>
<radialGradient id="paint47_radial_26_18067" cx="0" cy="0" r="1" gradientUnits="userSpaceOnUse" gradientTransform="translate(574.077 280.905) rotate(83.9376) scale(155.59 114.709)">
<stop stop-color="#890D05"/>
<stop offset="1" stop-color="#F6AB3E"/>
</radialGradient>
<radialGradient id="paint48_radial_26_18067" cx="0" cy="0" r="1" gradientUnits="userSpaceOnUse" gradientTransform="translate(687.348 287.881) rotate(72.9781) scale(181.031 355.729)">
<stop stop-color="#890D05"/>
<stop offset="1" stop-color="#F6AB3E"/>
</radialGradient>
<radialGradient id="paint49_radial_26_18067" cx="0" cy="0" r="1" gradientUnits="userSpaceOnUse" gradientTransform="translate(656.365 373.784) rotate(57.3065) scale(35.5859 113.559)">
<stop stop-color="#890D05"/>
<stop offset="1" stop-color="#F6AB3E"/>
</radialGradient>
<radialGradient id="paint50_radial_26_18067" cx="0" cy="0" r="1" gradientUnits="userSpaceOnUse" gradientTransform="translate(697.227 396.662) rotate(44.7615) scale(11.8111 41.4559)">
<stop stop-color="#890D05"/>
<stop offset="1" stop-color="#F6AB3E"/>
</radialGradient>
<radialGradient id="paint51_radial_26_18067" cx="0" cy="0" r="1" gradientUnits="userSpaceOnUse" gradientTransform="translate(683.937 384.566) rotate(85.5525) scale(66.6492 36.173)">
<stop stop-color="#890D05"/>
<stop offset="1" stop-color="#F6AB3E"/>
</radialGradient>
<radialGradient id="paint52_radial_26_18067" cx="0" cy="0" r="1" gradientUnits="userSpaceOnUse" gradientTransform="translate(703.795 405.497) rotate(72.2245) scale(46.4584 94.8137)">
<stop stop-color="#890D05"/>
<stop offset="1" stop-color="#F6AB3E"/>
</radialGradient>
<radialGradient id="paint53_radial_26_18067" cx="0" cy="0" r="1" gradientUnits="userSpaceOnUse" gradientTransform="translate(761.871 347.946) rotate(85.7105) scale(184.412 96.5588)">
<stop stop-color="#890D05"/>
<stop offset="1" stop-color="#F6AB3E"/>
</radialGradient>
<radialGradient id="paint54_radial_26_18067" cx="0" cy="0" r="1" gradientUnits="userSpaceOnUse" gradientTransform="translate(787.592 579.826) rotate(54.5349) scale(13.7445 45.5962)">
<stop stop-color="#890D05"/>
<stop offset="1" stop-color="#F6AB3E"/>
</radialGradient>
<radialGradient id="paint55_radial_26_18067" cx="0" cy="0" r="1" gradientUnits="userSpaceOnUse" gradientTransform="translate(801.323 440.037) rotate(80.4198) scale(96.2627 110.898)">
<stop stop-color="#890D05"/>
<stop offset="1" stop-color="#F6AB3E"/>
</radialGradient>
<radialGradient id="paint56_radial_26_18067" cx="0" cy="0" r="1" gradientUnits="userSpaceOnUse" gradientTransform="translate(810.054 424.299) rotate(79.6552) scale(100.679 124.853)">
<stop stop-color="#890D05"/>
<stop offset="1" stop-color="#F6AB3E"/>
</radialGradient>
<radialGradient id="paint57_radial_26_18067" cx="0" cy="0" r="1" gradientUnits="userSpaceOnUse" gradientTransform="translate(823.68 504.588) rotate(81.3211) scale(51.4844 53.9131)">
<stop stop-color="#890D05"/>
<stop offset="1" stop-color="#F6AB3E"/>
</radialGradient>
<radialGradient id="paint58_radial_26_18067" cx="0" cy="0" r="1" gradientUnits="userSpaceOnUse" gradientTransform="translate(808.613 436.479) rotate(60.7802) scale(25.1478 75.2137)">
<stop stop-color="#890D05"/>
<stop offset="1" stop-color="#F6AB3E"/>
</radialGradient>
<radialGradient id="paint59_radial_26_18067" cx="0" cy="0" r="1" gradientUnits="userSpaceOnUse" gradientTransform="translate(818.884 134.715) rotate(56.5875) scale(198.584 640.791)">
<stop stop-color="#890D05"/>
<stop offset="1" stop-color="#F6AB3E"/>
</radialGradient>
<radialGradient id="paint60_radial_26_18067" cx="0" cy="0" r="1" gradientUnits="userSpaceOnUse" gradientTransform="translate(918.547 309.763) rotate(61.0579) scale(7.18721 21.3669)">
<stop stop-color="#890D05"/>
<stop offset="1" stop-color="#F6AB3E"/>
</radialGradient>
<radialGradient id="paint61_radial_26_18067" cx="0" cy="0" r="1" gradientUnits="userSpaceOnUse" gradientTransform="translate(739.219 184.713) rotate(29.3141) scale(72.7314 217.968)">
<stop stop-color="#890D05"/>
<stop offset="1" stop-color="#F6AB3E"/>
</radialGradient>
</defs>
</svg>
