<svg width="42" height="42" viewBox="0 0 42 42" fill="none" xmlns="http://www.w3.org/2000/svg">
<g id="fluent:location-16-filled">
<path id="Vector" d="M24.4678 39.739C29.4532 35.3514 38.3228 26.3874 38.3228 18.1614C38.3228 13.6099 36.5147 9.24485 33.2963 6.02646C30.078 2.80807 25.7129 1 21.1614 1C16.6099 1 12.2448 2.80807 9.02646 6.02646C5.80807 9.24485 4 13.6099 4 18.1614C4 26.3874 12.8667 35.3514 17.855 39.739C18.7649 40.5511 19.9418 41 21.1614 41C22.381 41 23.558 40.5511 24.4678 39.739ZM15.4409 18.1614C15.4409 16.6442 16.0436 15.1892 17.1164 14.1164C18.1892 13.0436 19.6442 12.4409 21.1614 12.4409C22.6786 12.4409 24.1336 13.0436 25.2064 14.1164C26.2792 15.1892 26.8819 16.6442 26.8819 18.1614C26.8819 19.6786 26.2792 21.1336 25.2064 22.2064C24.1336 23.2792 22.6786 23.8819 21.1614 23.8819C19.6442 23.8819 18.1892 23.2792 17.1164 22.2064C16.0436 21.1336 15.4409 19.6786 15.4409 18.1614Z" fill="black"/>
</g>
</svg>
