<svg width="283" height="63" viewBox="0 0 283 63" fill="none" xmlns="http://www.w3.org/2000/svg">
<g clip-path="url(#clip0_10_19281)">
<path d="M0 8.82003C3.19946 7.67693 6.53435 6.95684 9.92011 6.67803C25.0269 5.32983 38.0942 7.37103 44.7664 12.5622C49.2858 16.0902 49.0592 23.5242 44.3761 26.4222C39.1013 29.6604 32.7691 29.9502 21.8922 31.0464C19.3744 31.311 15.5977 31.6512 15.5977 31.9662C15.5977 32.2812 32.3285 40.6476 35.2491 42.1344C38.8244 43.9362 59.6969 55.6542 60.427 56.511C60.8299 56.9772 57.8337 56.511 57.1539 56.133C53.5157 54.3186 49.4621 52.101 49.1473 52.9956C48.8326 53.8902 50.9601 55.5156 49.4621 55.5156C48.8452 55.5156 36.8731 49.6692 35.5009 48.9006C34.3931 48.2706 31.5605 46.935 31.1451 47.8296C30.7297 48.7242 31.8753 50.7024 30.8681 50.4378C29.861 50.1732 12.2994 42.147 7.42749 38.8332C2.24084 35.28 0.868639 30.3408 4.20471 27.3546C9.54244 22.5792 16.4915 23.373 26.0717 22.1256C29.5463 21.6594 35.375 20.79 35.3246 17.6652C35.1987 11.8062 29.2945 10.1934 16.4412 8.84523C12.7967 8.40697 9.11082 8.44509 5.4762 8.95863C4.12918 9.10983 4.88452 8.36643 2.87028 8.71923C1.92731 8.92489 0.955057 8.95903 0 8.82003Z" fill="#003DA6"/>
<path d="M80.9345 43.8606C80.1865 43.2211 79.335 42.7141 78.4167 42.3612C77.9845 42.197 77.5377 42.0747 77.0822 41.9958C76.6177 41.9048 76.1456 41.8584 75.6723 41.8572C74.8326 41.8271 73.9958 41.9705 73.2139 42.2783C72.432 42.5861 71.7218 43.0518 71.1277 43.6464C70.5384 44.2662 70.0797 44.9984 69.7791 45.7993C69.4785 46.6003 69.342 47.4536 69.3778 48.3084C69.3445 49.1554 69.4823 50.0004 69.783 50.7928C70.0837 51.5852 70.541 52.3087 71.1277 52.92C71.6775 53.5033 72.3439 53.9642 73.0836 54.2724C73.8232 54.5807 74.6195 54.7295 75.4205 54.7092C75.9105 54.7086 76.3994 54.6622 76.8808 54.5706C77.3618 54.4839 77.8337 54.3531 78.2908 54.18C79.2506 53.7931 80.1364 53.2432 80.9093 52.5546V55.692C80.1752 56.2445 79.354 56.6704 78.4796 56.952C78.0349 57.085 77.5802 57.1819 77.12 57.2418C76.6285 57.3176 76.1318 57.3555 75.6345 57.3552C74.4048 57.368 73.1836 57.15 72.0341 56.7126C70.9438 56.298 69.953 55.6584 69.126 54.8352C68.2848 54.0177 67.6281 53.0296 67.1999 51.9372C66.3097 49.6739 66.3097 47.1571 67.1999 44.8938C67.631 43.7992 68.2872 42.8075 69.126 41.9832C69.9609 41.1578 70.9545 40.5105 72.0466 40.0806C73.1511 39.6094 74.3337 39.3487 75.5338 39.312C76.0265 39.3125 76.5185 39.3462 77.0067 39.4128C77.4805 39.4903 77.9476 39.6041 78.4041 39.753C79.3473 40.0475 80.2361 40.4944 81.0352 41.076L80.9345 43.8606Z" fill="#58595B"/>
<path d="M101.354 48.2832C101.366 49.4594 101.137 50.6257 100.68 51.7094C100.223 52.7932 99.5481 53.7714 98.6975 54.5832C97.8204 55.4164 96.7958 56.0787 95.6762 56.5362C94.0134 57.2212 92.1866 57.4037 90.4214 57.0611C88.6561 56.7185 87.0299 55.8658 85.7435 54.6084C84.9029 53.7896 84.2355 52.8099 83.7813 51.7275C83.3271 50.6451 83.0954 49.4823 83.0998 48.3084C83.0961 47.1251 83.3227 45.9525 83.767 44.856C84.2186 43.7673 84.8917 42.7846 85.7435 41.9706C86.5892 41.1372 87.59 40.478 88.6893 40.0302C89.8067 39.5851 90.999 39.3584 92.2016 39.3624C93.3878 39.3599 94.5633 39.5866 95.6636 40.0302C96.7653 40.4732 97.767 41.133 98.6094 41.9706C99.5005 42.773 100.216 43.751 100.712 44.8434C101.159 45.9339 101.377 47.1047 101.354 48.2832ZM98.4583 48.2832C98.4737 47.4204 98.3153 46.5633 97.9925 45.7632C97.3768 44.2214 96.1779 42.9852 94.6565 42.3234C93.8974 41.9953 93.0788 41.828 92.252 41.832C91.4307 41.8299 90.6174 41.9927 89.8601 42.3108C89.101 42.63 88.4154 43.1017 87.8458 43.6968C87.2682 44.2924 86.8108 44.994 86.4988 45.7632C86.1727 46.5623 86.0141 47.4201 86.033 48.2832C86.0244 49.1208 86.1827 49.9519 86.4988 50.7276C86.6478 51.1099 86.8333 51.477 87.0527 51.8238C87.7404 52.8602 88.7102 53.6778 89.8475 54.18C90.6043 54.5002 91.4177 54.6651 92.2394 54.6651C93.0611 54.6651 93.8744 54.5002 94.6313 54.18C95.3794 53.8541 96.0554 53.3831 96.6203 52.794C97.2006 52.1978 97.662 51.4965 97.98 50.7276C98.2966 49.9516 98.459 49.1213 98.4583 48.2832Z" fill="#58595B"/>
<path d="M104.048 56.7631V39.0601L114.849 49.4803L115.819 50.4001C116.108 50.7277 116.435 51.1057 116.775 51.5341V39.7153H119.293V57.4309L108.265 46.8217L107.837 46.3933L107.409 45.9145C107.132 45.5869 106.868 45.2467 106.629 44.9065V56.7631H104.048Z" fill="#58595B"/>
<path d="M121.723 53.3484L123.926 52.3278C124.096 53.0254 124.506 53.6408 125.084 54.0666C125.715 54.4915 126.465 54.7035 127.224 54.6714C127.938 54.709 128.639 54.4647 129.175 53.991C129.422 53.7547 129.614 53.4681 129.74 53.1507C129.866 52.8333 129.923 52.4925 129.906 52.1514C129.906 51.1518 129.066 50.2572 127.388 49.4676L126.859 49.2156C125.449 48.629 124.166 47.7731 123.082 46.6956C122.45 45.9322 122.114 44.9655 122.138 43.974C122.115 43.3426 122.23 42.7137 122.473 42.1308C122.717 41.5479 123.083 41.0246 123.548 40.5972C124.574 39.7159 125.899 39.2646 127.249 39.3372C128.339 39.3009 129.419 39.5484 130.384 40.0554C131.224 40.5084 131.866 41.2586 132.184 42.1596L130.019 43.2684C129.743 42.7945 129.359 42.3929 128.898 42.0966C128.405 41.8159 127.84 41.6866 127.274 41.7247C126.708 41.7628 126.165 41.9666 125.713 42.3108C125.498 42.5056 125.328 42.7453 125.214 43.013C125.101 43.2808 125.048 43.5701 125.059 43.8606C125.059 44.8938 126.028 45.8514 127.954 46.7334L128.294 46.8972C129.591 47.4084 130.769 48.1803 131.756 49.1652C132.398 49.9478 132.734 50.9376 132.7 51.9498C132.732 52.6617 132.613 53.3724 132.35 54.0348C132.088 54.6972 131.688 55.2964 131.177 55.7928C130.07 56.7741 128.626 57.2888 127.149 57.2292C125.888 57.2823 124.643 56.929 123.598 56.2212C122.636 55.5318 121.967 54.5069 121.723 53.3484Z" fill="#58595B"/>
<path d="M140.795 42.0713V56.7629H138.025V42.0713H133.443V39.7151H145.239V42.0713H140.795Z" fill="#58595B"/>
<path d="M149.519 49.14V56.7H146.926V39.7152H150.791C151.677 39.695 152.563 39.7668 153.434 39.9294C154.011 40.0574 154.553 40.3113 155.021 40.6728C155.568 41.0916 156.001 41.642 156.279 42.273C156.423 42.5999 156.529 42.9424 156.594 43.2936C156.67 43.6626 156.708 44.0384 156.707 44.415C156.774 45.5631 156.43 46.6974 155.738 47.6154C154.976 48.4407 153.926 48.9414 152.805 49.014L158.621 56.763H155.486L149.809 49.14H149.519ZM149.695 46.9854H150.199C151.201 47.079 152.21 46.9005 153.12 46.4688C153.378 46.2483 153.579 45.9675 153.704 45.6511C153.829 45.3348 153.875 44.9926 153.837 44.6544C153.871 44.2866 153.818 43.9158 153.683 43.5722C153.547 43.2286 153.333 42.9216 153.057 42.6762C152.182 42.2052 151.188 42.0036 150.199 42.0966H149.695V46.9854Z" fill="#58595B"/>
<path d="M159.716 39.7151H162.461V50.0723C162.372 51.3186 162.749 52.5534 163.518 53.5373C164.402 54.2731 165.516 54.6759 166.665 54.6759C167.815 54.6759 168.929 54.2731 169.813 53.5373C170.597 52.5605 170.979 51.3215 170.883 50.0723V39.7151H173.728V50.3243C173.801 51.2611 173.684 52.2031 173.384 53.0932C173.083 53.9834 172.605 54.8032 171.978 55.5029C170.461 56.6272 168.623 57.234 166.735 57.234C164.847 57.234 163.009 56.6272 161.491 55.5029C160.866 54.7996 160.389 53.9775 160.088 53.0856C159.788 52.1937 159.67 51.2503 159.741 50.3117L159.716 39.7151Z" fill="#58595B"/>
<path d="M190.698 43.8606C189.95 43.2211 189.098 42.714 188.18 42.3612C187.748 42.197 187.301 42.0746 186.845 41.9958C186.381 41.9048 185.909 41.8584 185.436 41.8572C184.596 41.8271 183.759 41.9704 182.977 42.2782C182.195 42.5861 181.485 43.0518 180.891 43.6464C180.302 44.2662 179.843 44.9983 179.542 45.7993C179.242 46.6002 179.105 47.4535 179.141 48.3084C179.108 49.1553 179.246 50.0003 179.546 50.7927C179.847 51.5851 180.304 52.3086 180.891 52.92C181.439 53.5017 182.104 53.9616 182.841 54.2698C183.578 54.578 184.372 54.7277 185.171 54.7092C185.661 54.7098 186.15 54.6634 186.631 54.5706C187.117 54.4798 187.593 54.3448 188.054 54.1674C189.014 53.7804 189.9 53.2306 190.673 52.542V55.6794C189.938 56.2319 189.117 56.6577 188.243 56.9394C187.798 57.0711 187.343 57.168 186.883 57.2292C186.392 57.3049 185.895 57.3428 185.398 57.3426C184.168 57.3553 182.947 57.1374 181.797 56.7C180.707 56.2854 179.716 55.6457 178.889 54.8226C178.048 54.0051 177.391 53.017 176.963 51.9246C176.073 49.6613 176.073 47.1444 176.963 44.8812C177.394 43.7865 178.05 42.7949 178.889 41.9706C179.724 41.1451 180.718 40.4979 181.81 40.068C182.938 39.6337 184.138 39.4157 185.347 39.4254C185.84 39.4258 186.332 39.4595 186.82 39.5262C187.294 39.6037 187.761 39.7174 188.218 39.8664C189.161 40.1609 190.05 40.6078 190.849 41.1894L190.698 43.8606Z" fill="#58595B"/>
<path d="M199.157 42.0713V56.7629H196.388V42.0713H191.868V39.7151H203.652V42.0713H199.157Z" fill="#58595B"/>
<path d="M205.339 56.7629V39.7151H208.108V56.7629H205.339Z" fill="#58595B"/>
<path d="M229.119 48.2833C229.132 49.4596 228.902 50.6258 228.445 51.7096C227.988 52.7934 227.314 53.7715 226.463 54.5833C225.601 55.4113 224.594 56.0734 223.492 56.5363C221.257 57.4522 218.752 57.4522 216.518 56.5363C215.417 56.0914 214.416 55.4318 213.572 54.5959C212.727 53.78 212.055 52.8011 211.599 51.7183C211.142 50.6354 210.91 49.4712 210.916 48.2959C210.908 47.1111 211.139 45.9369 211.595 44.8435C212.038 43.7531 212.707 42.7695 213.559 41.9581C214.405 41.1248 215.406 40.4655 216.505 40.0177C217.623 39.5727 218.815 39.346 220.017 39.3499C221.204 39.3474 222.379 39.5742 223.479 40.0177C225.14 40.67 226.565 41.8072 227.571 43.2813C228.577 44.7554 229.116 46.4982 229.119 48.2833ZM226.224 48.2833C226.237 47.4219 226.083 46.5661 225.771 45.7633C225.455 44.9995 224.998 44.3026 224.424 43.7095C223.853 43.1216 223.173 42.6508 222.422 42.3235C221.663 41.9954 220.844 41.8281 220.017 41.8321C219.195 41.8279 218.38 41.991 217.623 42.3116C216.866 42.6321 216.181 43.1035 215.611 43.6969C215.038 44.2958 214.581 44.9966 214.264 45.7633C214.118 46.149 214 46.5448 213.912 46.9477C213.836 47.3634 213.798 47.7851 213.798 48.2077C213.79 49.0454 213.948 49.8764 214.264 50.6521C214.413 51.0345 214.599 51.4016 214.818 51.7483C215.052 52.0952 215.318 52.4199 215.611 52.7185C216.177 53.3195 216.86 53.7984 217.618 54.1257C218.376 54.453 219.192 54.6218 220.017 54.6218C220.843 54.6218 221.659 54.453 222.417 54.1257C223.175 53.7984 223.857 53.3195 224.424 52.7185C225.004 52.1224 225.465 51.4211 225.783 50.6521C226.066 49.8954 226.198 49.0908 226.173 48.2833H226.224Z" fill="#58595B"/>
<path d="M231.763 56.7631V39.0601L242.577 49.4803L243.471 50.4127C243.76 50.7403 244.088 51.1183 244.427 51.5467V39.7153H246.945V57.4309L235.917 46.8217L235.477 46.3933L235.049 45.9145C234.772 45.5869 234.507 45.2467 234.268 44.9065V56.7631H231.763Z" fill="#58595B"/>
<path fill-rule="evenodd" clip-rule="evenodd" d="M78.5552 20.4497L85.1644 29.0681H78.3663L73.2048 20.9789V29.0681H67.6783V8.03872H75.8485C77.7188 7.93383 79.5668 8.4865 81.073 9.60112C81.7784 10.2011 82.3337 10.958 82.6944 11.8113C83.0551 12.6646 83.2112 13.5906 83.1501 14.5151C83.1894 15.8897 82.7782 17.2393 81.9794 18.3581C81.5754 18.9163 81.0647 19.3887 80.4769 19.7478C79.8891 20.1068 79.2359 20.3454 78.5552 20.4497ZM73.1545 12.2219V17.4635H73.6832C76.201 17.4635 77.4599 16.5941 77.4599 14.8553C77.4599 13.1165 76.201 12.2219 73.6832 12.2219H73.1545Z" fill="#58595B"/>
<path fill-rule="evenodd" clip-rule="evenodd" d="M99.0248 12.663H92.5163V16.1532H98.6849V20.79H92.5163V24.444H99.0248V29.0682H87.0527V8.03882H99.0248V12.663Z" fill="#58595B"/>
<path fill-rule="evenodd" clip-rule="evenodd" d="M101.429 29.0682V8.03882H106.893L116.901 20.9034H116.952V8.03882H122.415V29.0682H116.952L106.943 16.191H106.893V29.0682H101.429Z" fill="#58595B"/>
<path fill-rule="evenodd" clip-rule="evenodd" d="M138.579 25.4142H131.026L129.666 29.0682H123.812L131.895 8.03882H137.862L145.78 29.0682H139.952L138.579 25.4142ZM137.119 21.231L134.878 14.5404L132.625 21.231H137.119Z" fill="#58595B"/>
<path d="M152.666 8.03882H147.203V29.0808H152.666V8.03882Z" fill="#58595B"/>
<path fill-rule="evenodd" clip-rule="evenodd" d="M168.994 9.21063L166.816 13.4568C165.815 12.5697 164.528 12.0732 163.191 12.0582C162.646 12.0495 162.112 12.203 161.655 12.4992C161.423 12.6213 161.227 12.8016 161.085 13.0225C160.944 13.2434 160.863 13.4973 160.849 13.7592C160.849 14.616 161.655 15.2964 163.266 15.7752L164.664 16.191C166.02 16.5451 167.277 17.2045 168.34 18.1188C168.84 18.6091 169.233 19.1985 169.493 19.8494C169.753 20.5002 169.875 21.1983 169.85 21.8988C169.957 22.9713 169.817 24.054 169.439 25.0634C169.061 26.0728 168.457 26.9817 167.672 27.72C165.991 29.0759 163.876 29.7783 161.718 29.6982C159.065 29.6921 156.481 28.8549 154.328 27.3042L156.657 22.8942C157.961 24.1825 159.688 24.9527 161.516 25.0614C162.167 25.0759 162.807 24.896 163.354 24.5448C163.615 24.3698 163.826 24.1307 163.967 23.8504C164.108 23.5701 164.174 23.2582 164.16 22.9446C164.134 22.5765 164.001 22.2241 163.777 21.9308C163.554 21.6375 163.249 21.4161 162.901 21.294C162.232 20.9745 161.532 20.7253 160.811 20.5506C159.326 20.227 157.921 19.6055 156.682 18.7236C156.131 18.1972 155.705 17.5539 155.435 16.8409C155.164 16.1278 155.057 15.3633 155.121 14.6034C155.089 13.6672 155.254 12.7346 155.605 11.8663C155.957 10.998 156.487 10.2133 157.161 9.56343C157.85 8.88296 158.668 8.34822 159.568 7.99105C160.468 7.63388 161.43 7.46158 162.398 7.48443C164.71 7.4666 166.986 8.0622 168.994 9.21063Z" fill="#58595B"/>
<path fill-rule="evenodd" clip-rule="evenodd" d="M185.184 9.21057L183.018 13.4568C182.017 12.5697 180.73 12.0732 179.393 12.0582C178.848 12.0495 178.314 12.203 177.857 12.4992C177.627 12.6231 177.432 12.804 177.291 13.0245C177.15 13.245 177.067 13.4979 177.051 13.7592C177.051 14.616 177.857 15.2964 179.481 15.7752L180.866 16.191C182.224 16.5482 183.485 17.2071 184.554 18.1188C185.053 18.6101 185.443 19.2 185.701 19.8508C185.959 20.5017 186.079 21.1991 186.052 21.8988C186.158 22.97 186.018 24.0513 185.643 25.0602C185.268 26.069 184.667 26.9787 183.887 27.72C182.2 29.0757 180.082 29.7779 177.92 29.6982C175.268 29.6903 172.684 28.8533 170.53 27.3042L172.872 22.8942C174.175 24.1825 175.902 24.9527 177.731 25.0614C178.377 25.074 179.013 24.8942 179.556 24.5448C179.818 24.3704 180.031 24.1317 180.174 23.8515C180.317 23.5714 180.386 23.2591 180.375 22.9446C180.347 22.5769 180.214 22.2252 179.99 21.9322C179.767 21.6392 179.463 21.4175 179.116 21.294C178.446 20.9765 177.746 20.7275 177.026 20.5506C175.544 20.2277 174.143 19.6061 172.909 18.7236C172.358 18.1972 171.932 17.5538 171.662 16.8408C171.392 16.1278 171.285 15.3632 171.348 14.6034C171.314 13.6679 171.476 12.7357 171.825 11.8673C172.175 10.9989 172.703 10.2139 173.375 9.56337C174.073 8.91036 174.892 8.40167 175.787 8.06652C176.681 7.73137 177.633 7.57635 178.587 7.61037C180.889 7.54867 183.166 8.10096 185.184 9.21057Z" fill="#58595B"/>
<path fill-rule="evenodd" clip-rule="evenodd" d="M200.555 25.4142H193.001L191.554 29.0682H185.75L193.87 8.03882H199.837L207.718 29.0682H201.927L200.555 25.4142ZM199.082 21.231L196.854 14.5404L194.588 21.231H199.082Z" fill="#58595B"/>
<path fill-rule="evenodd" clip-rule="evenodd" d="M209.871 29.0682V8.03882H215.334L225.343 20.9034H225.393V8.03882H230.857V29.0682H225.393L215.385 16.191H215.334V29.0682H209.871Z" fill="#58595B"/>
<path fill-rule="evenodd" clip-rule="evenodd" d="M248.494 8.54278V15.12C247.946 14.3661 247.22 13.7599 246.381 13.3553C245.541 12.9508 244.615 12.7605 243.685 12.8016C242.931 12.7778 242.181 12.9149 241.484 13.2039C240.787 13.4928 240.16 13.927 239.644 14.4774C238.607 15.6094 238.052 17.1007 238.095 18.6354C238.068 19.3924 238.191 20.1473 238.457 20.8565C238.723 21.5658 239.126 22.2155 239.644 22.7682C240.189 23.2989 240.836 23.7132 241.545 23.9861C242.255 24.259 243.013 24.3848 243.773 24.3558C244.678 24.3711 245.574 24.178 246.393 23.7912C247.211 23.4045 247.93 22.8346 248.494 22.1256V28.6776C246.935 29.2241 245.308 29.5548 243.659 29.6604C240.737 29.6805 237.917 28.5805 235.779 26.586C234.673 25.5806 233.798 24.3467 233.215 22.9695C232.633 21.5923 232.356 20.1049 232.405 18.6102C232.378 17.1846 232.639 15.7683 233.171 14.4456C233.703 13.123 234.496 11.9211 235.502 10.9116C236.525 9.81914 237.764 8.95231 239.14 8.36652C240.517 7.78073 242 7.48886 243.496 7.50958C245.213 7.52187 246.912 7.87297 248.494 8.54278Z" fill="#58595B"/>
<path fill-rule="evenodd" clip-rule="evenodd" d="M262.845 12.663H256.362V16.1532H262.518V20.79H256.362V24.444H262.845V29.0682H250.898V8.03882H262.845V12.663Z" fill="#58595B"/>
</g>
<defs>
<clipPath id="clip0_10_19281">
<rect width="283" height="63" fill="white"/>
</clipPath>
</defs>
</svg>
