<svg width="160" height="109" viewBox="0 0 160 109" fill="none" xmlns="http://www.w3.org/2000/svg">
<g id="&#208;&#160;&#208;&#181;&#209;&#129;&#209;&#131;&#209;&#128;&#209;&#129; 1 2" clip-path="url(#clip0_10_19261)">
<g id="Layer 1">
<g id="Group">
<path id="Vector" d="M44.333 3.93371C44.3138 2.18148 45.6476 0.576609 47.3267 0.150565C48.8044 -0.281886 50.4804 0.240258 51.5038 1.38385C60.9935 11.7499 70.4672 22.1383 79.9824 32.4819C89.4657 22.1062 98.9617 11.7338 108.451 1.36143C109.875 -0.294699 112.638 -0.45807 114.244 1.02508C115.254 1.88998 115.712 3.23858 115.661 4.54875C115.654 17.5831 115.661 30.6175 115.657 43.6519H107.421C107.437 34.0034 107.39 24.3582 107.447 14.7129C99.2528 23.6118 91.1128 32.5619 82.9313 41.4704C81.3449 43.1105 78.3672 43.0689 76.8672 41.3295C68.7464 32.4466 60.6161 23.5766 52.4954 14.6937C52.4858 29.6918 52.4858 44.6898 52.4954 59.6878C52.3514 61.4817 53.8323 63.2499 55.6746 63.1891C75.6678 63.1987 95.6642 63.1891 115.657 63.1923C115.645 65.9471 115.689 68.702 115.632 71.4601C95.4371 71.4088 75.2424 71.4729 55.0509 71.4249C49.4153 71.2487 44.4546 66.2771 44.333 60.6264V3.93371Z" fill="black"/>
<path id="Vector_2" d="M0 82.896C1.32094 82.8896 2.64508 82.8896 3.96602 82.896C5.64198 86.8873 7.32114 90.8755 9.02909 94.854C10.7466 90.8819 12.413 86.8873 14.089 82.8992C15.4163 82.8864 16.7436 82.8896 18.071 82.896V103.871C17.0027 103.875 15.9376 103.875 14.8694 103.871C14.8566 98.9415 14.9045 94.0116 14.847 89.0816C13.3213 92.5701 11.9108 96.1098 10.4492 99.6302C9.50245 99.6302 8.55572 99.6302 7.61219 99.6238C6.15052 96.0777 4.69205 92.5316 3.2048 88.9983C3.192 93.9571 3.2048 98.9127 3.1984 103.871C2.13333 103.875 1.06827 103.875 0 103.875L0 82.896Z" fill="black"/>
<path id="Vector_3" d="M128.042 83.0305C128.972 83.7192 130.012 84.4047 131.211 84.4208C132.414 84.408 133.456 83.7192 134.39 83.0305C134.685 83.5783 134.979 84.1261 135.276 84.6738C134.138 85.6669 132.775 86.5606 131.218 86.5766C129.647 86.5638 128.278 85.6605 127.14 84.661C127.437 84.1164 127.741 83.5751 128.042 83.0305Z" fill="black"/>
<path id="Vector_4" d="M144.018 86.6823C146.228 86.1793 148.415 85.4266 150.721 85.6956C150.728 91.5674 150.725 97.4423 150.721 103.314H147.846C147.843 98.3488 147.846 93.3836 147.846 88.4185C146.567 88.537 145.284 88.6363 144.005 88.7452C144.005 88.0565 144.011 87.371 144.018 86.6823Z" fill="black"/>
<path id="Vector_5" d="M153.293 86.6823C155.503 86.1826 157.691 85.4266 159.997 85.6957C160.003 91.5674 160 97.4423 159.997 103.314H157.125C157.118 98.3489 157.121 93.3837 157.121 88.4185C155.842 88.5371 154.56 88.6364 153.28 88.7453C153.28 88.0566 153.287 87.3711 153.293 86.6823Z" fill="black"/>
<path id="Vector_6" d="M23.8921 88.0374C25.9294 87.653 28.1203 87.5794 30.1193 88.1944C31.8305 88.7646 32.4158 90.6802 32.5405 92.3075C32.7708 95.136 32.87 98.0383 32.2655 100.825C31.9712 102.331 30.6535 103.474 29.1502 103.667C27.2216 103.936 25.1618 104.022 23.3067 103.33C21.7747 102.773 21.2054 101.053 21.0487 99.5727C20.78 96.9139 20.764 94.2103 21.1158 91.5579C21.2758 89.9851 22.2673 88.3898 23.8921 88.0374ZM25.7887 90.267C24.842 90.3983 24.3462 91.3049 24.2663 92.1794C24.02 94.3736 24.0296 96.5936 24.1991 98.7943C24.2727 99.6335 24.4262 100.639 25.2386 101.097C26.2045 101.488 27.3559 101.498 28.3154 101.075C29.4605 100.444 29.3293 98.9224 29.4221 97.7948C29.3485 95.687 29.6556 93.5248 29.1182 91.4586C28.7248 90.062 26.9497 90.0395 25.7887 90.267Z" fill="black"/>
<path id="Vector_7" d="M35.5598 89.7542C36.1419 88.5209 37.4917 87.8899 38.7966 87.8098C40.8436 87.6688 42.9129 87.7521 44.9375 88.0949C44.9375 88.9245 44.9375 89.7574 44.9343 90.5935C43.2168 90.4109 41.4737 90.2059 39.7497 90.4141C38.9021 90.4782 38.2721 91.2373 38.1441 92.0414C37.7603 93.9217 37.917 95.8534 37.917 97.7593C37.9874 99.0118 38.2081 100.71 39.6602 101.065C41.4257 101.424 43.252 101.197 45.0271 101.014C45.0207 101.744 45.0175 102.475 45.0271 103.208C42.7434 103.855 40.3126 104.067 37.9682 103.66C36.7944 103.484 35.7869 102.635 35.3711 101.526C34.7346 99.8255 34.6995 97.974 34.6995 96.1801C34.7058 94.0243 34.6419 91.7531 35.563 89.7542H35.5598Z" fill="black"/>
<path id="Vector_8" d="M62.9029 88.0629C64.87 87.6401 66.9809 87.608 68.9319 88.111C70.4128 88.4761 71.2828 89.9208 71.4683 91.3591C71.8777 94.0211 71.8297 96.7472 71.5962 99.4252C71.4619 101.03 70.8158 102.869 69.143 103.417C67.0161 104.025 64.6749 104.038 62.5511 103.41C60.7504 102.827 60.1811 100.803 60.0628 99.1112C59.8932 96.43 59.7941 93.7008 60.2931 91.0484C60.5073 89.6518 61.4988 88.3929 62.9029 88.0629ZM64.8316 90.2828C63.8177 90.411 63.3603 91.452 63.3123 92.365C63.0949 94.476 63.1172 96.6158 63.2612 98.7332C63.3379 99.7038 63.5554 101.014 64.7036 101.232C65.9126 101.546 67.7965 101.501 68.2155 100.04C68.6633 98.0349 68.5129 95.9559 68.5065 93.9186C68.401 92.8135 68.5257 91.4937 67.675 90.6448C66.8498 90.0874 65.7719 90.0874 64.8316 90.2828Z" fill="black"/>
<path id="Vector_9" d="M74.0654 91.4553C74.3021 89.9113 75.2392 88.3128 76.8736 87.9861C79.234 87.5472 81.6808 87.7394 84.038 88.1078C84.038 88.9375 84.038 89.7671 84.0316 90.6C82.2021 90.4334 80.3246 90.1291 78.5047 90.4943C77.542 90.6961 77.203 91.7436 77.1102 92.6021C76.8576 94.7483 76.8256 96.9362 77.1518 99.0792C77.2702 99.9794 77.8395 100.879 78.7798 101.081C80.5421 101.418 82.3588 101.2 84.1275 100.998C84.1179 101.728 84.1179 102.456 84.1179 103.186C81.7543 103.881 79.1988 104.096 76.7808 103.596C75.2072 103.288 74.2925 101.776 74.0686 100.29C73.6176 97.3718 73.592 94.3703 74.0654 91.4553Z" fill="black"/>
<path id="Vector_10" d="M101.655 89.0207C103.35 88.2647 105.349 87.3742 107.185 88.1942C108.752 88.9278 109.401 90.7089 109.59 92.3233C109.878 94.8924 109.9 97.5096 109.516 100.069C109.344 101.382 108.714 102.801 107.412 103.327C105.72 104.019 103.865 103.602 102.112 103.458C102.106 105.303 102.112 107.152 102.109 109C101.066 109 100.027 109 98.9873 108.997C99.0033 102.029 98.9649 95.059 99.0097 88.0917C99.8125 88.0949 100.622 88.0981 101.428 88.0949C101.485 88.3288 101.597 88.7901 101.655 89.0207ZM102.103 91.577C102.115 94.6554 102.109 97.737 102.109 100.815C103.145 100.924 104.207 101.113 105.247 100.924C106.04 100.706 106.404 99.8544 106.497 99.1048C106.782 96.9586 106.673 94.7803 106.462 92.6309C106.372 91.7564 105.995 90.68 104.978 90.5711C103.945 90.6416 103.017 91.1349 102.103 91.577Z" fill="black"/>
<path id="Vector_11" d="M114.4 88.0853C116.364 87.6368 118.475 87.6176 120.439 88.0853C121.981 88.4281 122.902 89.9432 123.078 91.4296C123.481 94.4375 123.525 97.5287 123.001 100.524C122.79 102.042 121.616 103.359 120.084 103.605C118.031 103.961 115.808 104.048 113.837 103.279C111.982 102.462 111.717 100.181 111.595 98.4032C111.535 95.8214 111.359 93.1818 111.986 90.6544C112.245 89.4339 113.204 88.4248 114.4 88.0853ZM116.326 90.3052C115.232 90.4974 114.925 91.7115 114.867 92.6565C114.704 95.0782 114.612 97.5415 115.046 99.9376C115.411 101.517 117.413 101.575 118.677 101.203C119.607 100.988 119.895 99.9505 119.982 99.1208C120.183 97.202 120.1 95.2672 120.071 93.3452C119.969 92.3489 120.004 91.0388 119.006 90.4718C118.178 90.0874 117.199 90.097 116.326 90.3052Z" fill="black"/>
<path id="Vector_12" d="M46.7766 88.0982C50.5347 88.0982 54.2929 88.095 58.0478 88.1014C58.051 88.9247 58.051 89.7511 58.051 90.5808C56.7172 90.5808 55.3867 90.5776 54.053 90.584V103.311C52.9623 103.314 51.8685 103.314 50.7778 103.314C50.7682 99.0696 50.7778 94.8252 50.7714 90.584C49.4409 90.5808 48.1103 90.5808 46.7798 90.584C46.7766 89.7543 46.7766 88.9247 46.7766 88.0982Z" fill="black"/>
<path id="Vector_13" d="M85.7971 88.0981C89.5808 88.0981 93.3645 88.0981 97.1514 88.1014V90.5807C95.7921 90.5807 94.4328 90.5775 93.0735 90.5839V103.311C92.0084 103.314 90.9433 103.314 89.8783 103.311C89.8719 99.0696 89.8751 94.8252 89.8751 90.5839C88.5157 90.5775 87.1596 90.5807 85.8003 90.5839C85.7971 89.7543 85.7971 88.9246 85.7971 88.0981Z" fill="black"/>
<path id="Vector_14" d="M125.7 88.1014C126.657 88.095 127.616 88.095 128.576 88.1014C128.579 91.3464 128.569 94.5913 128.579 97.8395C130.194 94.6041 131.742 91.34 133.335 88.095C134.384 88.0982 135.436 88.0982 136.489 88.0982C136.495 93.1691 136.495 98.2431 136.489 103.314C135.555 103.314 134.624 103.314 133.696 103.311C133.687 100.085 133.706 96.8593 133.684 93.6335C132.132 96.8529 130.591 100.082 129.052 103.311C127.933 103.314 126.817 103.314 125.7 103.311C125.697 98.2399 125.697 93.1691 125.7 88.1014Z" fill="black"/>
</g>
<path id="Vector_15" d="M58.003 49.2608C77.2222 49.2544 96.4382 49.2576 115.657 49.2576V57.5062C96.4382 57.5062 77.2222 57.5094 58.0062 57.503C58.003 54.7546 58.0062 52.0093 58.003 49.2608Z" fill="#0071AD"/>
</g>
</g>
<defs>
<clipPath id="clip0_10_19261">
<rect width="160" height="109" fill="white"/>
</clipPath>
</defs>
</svg>
