<svg width="24" height="24" viewBox="0 0 24 24" fill="none" xmlns="http://www.w3.org/2000/svg">
<g id="24px/Placeholder">
<path id="Arrow 1" d="M4 11.5C3.72386 11.5 3.5 11.7239 3.5 12C3.5 12.2761 3.72386 12.5 4 12.5L4 11.5ZM19.3536 12.3536C19.5488 12.1583 19.5488 11.8417 19.3536 11.6464L16.1716 8.46447C15.9763 8.2692 15.6597 8.2692 15.4645 8.46447C15.2692 8.65973 15.2692 8.97631 15.4645 9.17157L18.2929 12L15.4645 14.8284C15.2692 15.0237 15.2692 15.3403 15.4645 15.5355C15.6597 15.7308 15.9763 15.7308 16.1716 15.5355L19.3536 12.3536ZM4 12.5L19 12.5L19 11.5L4 11.5L4 12.5Z" fill="white"/>
</g>
</svg>
