<svg width="42" height="42" viewBox="0 0 42 42" fill="none" xmlns="http://www.w3.org/2000/svg">
<g id="ic:round-email">
<path id="Vector" d="M37 5H5C2.8 5 1.02 6.8 1.02 9L1 33C1 35.2 2.8 37 5 37H37C39.2 37 41 35.2 41 33V9C41 6.8 39.2 5 37 5ZM36.2 13.5L22.06 22.34C21.42 22.74 20.58 22.74 19.94 22.34L5.8 13.5C5.59945 13.3874 5.42384 13.2353 5.28378 13.0529C5.14372 12.8705 5.04212 12.6616 4.98515 12.4387C4.92818 12.2159 4.91701 11.9839 4.95231 11.7566C4.98762 11.5294 5.06867 11.3116 5.19056 11.1166C5.31245 10.9216 5.47265 10.7533 5.66145 10.622C5.85026 10.4907 6.06374 10.399 6.28899 10.3526C6.51424 10.3062 6.74657 10.3059 6.97191 10.3519C7.19725 10.3979 7.41093 10.4891 7.6 10.62L21 19L34.4 10.62C34.5891 10.4891 34.8027 10.3979 35.0281 10.3519C35.2534 10.3059 35.4858 10.3062 35.711 10.3526C35.9363 10.399 36.1497 10.4907 36.3385 10.622C36.5274 10.7533 36.6875 10.9216 36.8094 11.1166C36.9313 11.3116 37.0124 11.5294 37.0477 11.7566C37.083 11.9839 37.0718 12.2159 37.0149 12.4387C36.9579 12.6616 36.8563 12.8705 36.7162 13.0529C36.5762 13.2353 36.4005 13.3874 36.2 13.5Z" fill="black"/>
</g>
</svg>
