<svg width="255" height="81" viewBox="0 0 255 81" fill="none" xmlns="http://www.w3.org/2000/svg">
<g id="Frame" clip-path="url(#clip0_26_18191)">
<path id="Vector" fill-rule="evenodd" clip-rule="evenodd" d="M4.27509 55.3787C16.4255 75.4477 40.3861 73.1374 51.2857 61.1964C51.3458 61.13 51.3458 60.7241 51.108 60.7827C39.8355 63.577 29.6247 60.4691 22.7228 53.988C7.86268 40.0294 9.44184 19.8446 20.966 7.66676C23.0039 5.51246 25.6933 3.83169 28.1324 2.31223C28.4555 2.1132 28.223 1.61365 27.8603 1.71902C7.2507 7.75132 -7.72189 35.5634 4.27509 55.3787Z" fill="#0078A8"/>
<path id="Vector_2" fill-rule="evenodd" clip-rule="evenodd" d="M45.305 0.896503C22.1606 1.57688 12.1465 23.8587 16.852 39.441C16.8777 39.5269 17.2239 39.7299 17.2916 39.4917C20.5534 28.1544 28.2997 20.7041 37.2636 17.859C56.566 11.733 72.9453 23.22 77.5409 39.4696C78.3536 42.346 78.4404 45.5553 78.5106 48.4667C78.5208 48.8504 79.0614 48.896 79.1507 48.524C84.3252 27.3334 68.158 0.225236 45.305 0.896503Z" fill="#EF4056"/>
<path id="Vector_3" fill-rule="evenodd" clip-rule="evenodd" d="M71.1151 64.3829C82.1092 43.6335 68.1652 23.6606 52.5576 20.0208C52.4719 19.9999 52.127 20.2042 52.297 20.3836C60.3077 28.9268 62.771 39.4849 60.7088 48.811C56.2678 68.8958 38.3095 77.5936 22.1894 73.5218C19.3366 72.801 16.564 71.2712 14.0522 69.8792C13.7213 69.6958 13.4121 70.1485 13.683 70.4152C29.1194 85.572 60.2605 84.8695 71.1151 64.3829Z" fill="#FFD530"/>
<path id="Vector_4" fill-rule="evenodd" clip-rule="evenodd" d="M157.602 22.6232C157.602 19.0756 160.283 16.2917 163.903 16.2917C166.189 16.2917 167.668 17.2362 168.715 18.5826C168.836 18.736 168.803 18.9637 168.649 19.0835L166.766 20.5716C166.617 20.6875 166.41 20.6615 166.285 20.5196C165.648 19.8042 164.896 19.3709 163.869 19.3709C162.196 19.3709 161.017 20.8136 161.017 22.6232C161.016 24.4496 162.196 25.8755 163.869 25.8755C164.997 25.8755 165.704 25.3927 166.358 24.6447C166.48 24.5069 166.681 24.4796 166.829 24.5863L168.767 25.9912C168.928 26.1083 168.966 26.3425 168.843 26.5012C167.738 27.9309 166.247 28.9535 163.768 28.9535C160.35 28.9535 157.6 26.293 157.602 22.6232ZM95.7263 22.6233C95.7263 19.0757 98.4093 16.2917 102.031 16.2917C104.317 16.2917 105.794 17.2363 106.842 18.5827C106.962 18.7362 106.93 18.9639 106.777 19.0836L104.891 20.5717C104.744 20.6876 104.536 20.6616 104.409 20.5197C103.773 19.8043 103.022 19.371 101.996 19.371C100.323 19.371 99.144 20.8137 99.144 22.6233C99.144 24.4497 100.323 25.8756 101.996 25.8756C103.123 25.8756 103.832 25.3929 104.486 24.6449C104.607 24.507 104.808 24.4797 104.957 24.5863L106.893 25.9913C107.055 26.1085 107.092 26.3426 106.971 26.5013C105.866 27.931 104.375 28.9535 101.892 28.9535C98.4759 28.9535 95.7263 26.2932 95.7263 22.6233ZM116.119 22.3799L111.642 27.0242V28.3979C111.642 28.5722 111.506 28.7115 111.335 28.7115H108.943C108.774 28.7115 108.636 28.5722 108.636 28.3979L108.637 17.1802C108.637 17.0059 108.774 16.8667 108.945 16.8667H111.335C111.506 16.8667 111.642 17.0059 111.642 17.1802V23.2672L116.119 18.6412V17.1802C116.119 17.0059 116.254 16.8667 116.425 16.8667H118.816C118.987 16.8667 119.125 17.0059 119.125 17.1802V28.3979C119.125 28.5722 118.987 28.7115 118.816 28.7115H116.424C116.254 28.7115 116.117 28.5722 116.117 28.3979L116.119 22.3799ZM129.803 17.1802C129.803 17.0057 129.667 16.8666 129.495 16.8666H122.303C122.132 16.8666 121.996 17.0057 121.996 17.1802V28.3992C121.996 28.5722 122.132 28.7113 122.303 28.7113H126.402C127.275 28.7113 128.213 28.5552 128.984 28.1376C129.973 27.6159 130.707 26.6416 130.707 25.0597C130.707 23.3373 129.956 22.4319 128.984 21.9622C128.06 21.5107 126.951 21.4587 126.114 21.4587H125.002V19.5803H129.495C129.667 19.5803 129.803 19.441 129.803 19.2667V17.1802ZM140.614 22.3799L136.138 27.024V28.3977C136.138 28.5722 136.002 28.7113 135.83 28.7113H133.439C133.268 28.7113 133.133 28.5722 133.133 28.3977V17.1802C133.133 17.0057 133.269 16.8666 133.44 16.8666H135.83C136.002 16.8666 136.138 17.0057 136.138 17.1802V23.267L140.614 18.641V17.1802C140.614 17.0057 140.751 16.8666 140.922 16.8666H143.312C143.483 16.8666 143.621 17.0057 143.621 17.1802V28.3977C143.621 28.5722 143.483 28.7113 143.312 28.7113H140.921C140.751 28.7113 140.614 28.5722 140.614 28.3977V22.3799ZM154.598 17.7889C153.745 17.0579 152.718 16.8666 151.763 16.8666H146.791C146.621 16.8666 146.482 17.0057 146.482 17.1802V28.3992C146.482 28.5722 146.621 28.7113 146.791 28.7113H149.181C149.352 28.7113 149.489 28.5722 149.489 28.3992V25.3902H151.846C152.751 25.3902 153.656 25.2157 154.478 24.5549C155.433 23.8069 156.049 22.5893 156.049 21.1283C156.049 19.7195 155.484 18.5369 154.598 17.7889ZM184.212 28.7132C184.486 28.7132 184.656 28.609 184.725 28.3657L185.254 26.5732H188.824L189.337 28.3657C189.405 28.609 189.576 28.7132 189.85 28.7132H192.276C192.48 28.7132 192.548 28.609 192.548 28.4699C192.548 28.4119 192.537 28.365 192.522 28.3106L192.515 28.2786L188.843 17.1299C188.774 16.9035 188.621 16.8163 188.363 16.8163H185.835C185.58 16.8163 185.425 16.9035 185.358 17.1299L181.615 28.2786L181.608 28.3106C181.593 28.365 181.582 28.4119 181.582 28.4699C181.582 28.609 181.649 28.7132 181.855 28.7132H184.212ZM193.946 20.833C193.946 19.5803 194.424 18.4146 195.295 17.7187C196.063 17.1112 197.14 16.8666 198.283 16.8666H203.46C203.631 16.8666 203.768 17.0057 203.768 17.1802V28.3992C203.768 28.5735 203.63 28.7113 203.46 28.7113H201.068C200.897 28.7113 200.76 28.5735 200.76 28.3992V24.8502H198.932L197.106 28.3992C196.968 28.6593 196.797 28.7113 196.526 28.7113H193.892C193.722 28.7113 193.62 28.6255 193.62 28.4693C193.62 28.3809 193.653 28.2769 193.722 28.1546L195.926 24.2596C195.687 24.1205 195.448 23.9643 195.226 23.7549C194.303 22.9197 193.946 21.8763 193.946 20.833ZM96.1653 46.4837C96.1653 46.658 96.302 46.7973 96.4732 46.7973H98.865C99.0361 46.7973 99.1729 46.658 99.1729 46.4837V37.6662H103.665C103.836 37.6662 103.973 37.527 103.973 37.3527V35.266C103.973 35.0917 103.836 34.9525 103.665 34.9525H96.4732C96.3033 34.9525 96.1666 35.0917 96.1666 35.266L96.1653 46.4837ZM114.873 34.9525C115.044 34.9525 115.181 35.0917 115.181 35.266V37.3527C115.181 37.527 115.044 37.6662 114.873 37.6662H109.203V39.4745H113.967C114.138 39.4745 114.275 39.615 114.275 39.788L114.274 41.8759C114.274 42.049 114.138 42.1882 113.967 42.1882H109.203V44.0836H114.873C115.043 44.0836 115.179 44.224 115.179 44.3972V46.485C115.179 46.658 115.043 46.7973 114.873 46.7973H106.502C106.33 46.7973 106.194 46.658 106.194 46.485L106.195 35.266C106.195 35.0917 106.332 34.9525 106.502 34.9525H114.873ZM128.077 35.266C128.077 35.0917 127.942 34.9525 127.77 34.9525H125.379C125.208 34.9525 125.072 35.0917 125.072 35.266V39.4745H120.629V35.266C120.629 35.0917 120.493 34.9525 120.323 34.9525H117.931C117.76 34.9525 117.623 35.0917 117.623 35.266V46.485C117.623 46.658 117.76 46.7973 117.93 46.7973H120.322C120.493 46.7973 120.629 46.658 120.629 46.485V42.1882H125.071V46.485C125.071 46.658 125.208 46.7973 125.379 46.7973H127.77C127.94 46.7973 128.076 46.658 128.076 46.485L128.077 35.266ZM139.616 34.9525C139.787 34.9525 139.924 35.0917 139.924 35.266V37.3527C139.924 37.527 139.787 37.6662 139.616 37.6662H133.946V39.4745H138.712C138.882 39.4745 139.018 39.615 139.018 39.788V41.8759C139.018 42.049 138.882 42.1882 138.71 42.1882H133.946V44.0836H139.616C139.786 44.0836 139.923 44.224 139.923 44.3972V46.485C139.923 46.658 139.786 46.7973 139.616 46.7973H131.245C131.074 46.7973 130.939 46.658 130.939 46.485V35.266C130.939 35.0917 131.075 34.9525 131.246 34.9525H139.616ZM150.483 35.8749C149.63 35.1437 148.603 34.9525 147.648 34.9525H142.676C142.506 34.9525 142.368 35.0917 142.368 35.266V46.485C142.368 46.658 142.506 46.7973 142.676 46.7973H145.066C145.238 46.7973 145.376 46.658 145.376 46.485V43.476H147.731C148.638 43.476 149.542 43.3018 150.362 42.6409C151.319 41.8929 151.935 40.6752 151.935 39.2143C151.935 37.8055 151.371 36.6229 150.483 35.8749ZM161.754 40.4649L157.277 45.1092V46.4829C157.277 46.6572 157.141 46.7965 156.969 46.7965H154.578C154.406 46.7965 154.271 46.6572 154.271 46.4829V35.2652C154.271 35.0909 154.408 34.9516 154.579 34.9516H156.969C157.141 34.9516 157.277 35.0909 157.277 35.2652V41.3522L161.754 36.7262V35.2652C161.754 35.0909 161.889 34.9516 162.059 34.9516H164.451C164.622 34.9516 164.76 35.0909 164.76 35.2652L164.759 46.4829C164.759 46.6572 164.622 46.7965 164.451 46.7965H162.059C161.889 46.7965 161.752 46.6572 161.752 46.4829L161.754 40.4649ZM175.74 35.8749C174.885 35.1437 173.86 34.9525 172.904 34.9525H167.933C167.761 34.9525 167.626 35.0917 167.626 35.266V46.485C167.626 46.658 167.761 46.7973 167.933 46.7973H170.323C170.494 46.7973 170.631 46.658 170.631 46.485V43.476H172.988C173.894 43.476 174.799 43.3018 175.619 42.6409C176.577 41.8929 177.192 40.6752 177.192 39.2143C177.192 37.8055 176.627 36.6229 175.74 35.8749ZM180.644 44.172C181.155 44.172 181.549 44.1369 181.89 43.9977C182.162 43.8936 182.386 43.7376 182.607 43.5112L178.509 35.3883C178.424 35.214 178.44 34.9525 178.748 34.9525H181.43C181.703 34.9525 181.855 35.1099 181.943 35.3012L184.146 40.3799L186.042 35.3012C186.127 35.093 186.28 34.9525 186.553 34.9525H189.099C189.406 34.9525 189.425 35.214 189.34 35.3883L186.023 43.2159C185.597 44.224 185.084 44.9552 184.486 45.5106C183.462 46.4682 182.214 46.7986 180.985 46.7986H179.925C179.755 46.7986 179.619 46.6593 179.619 46.485V44.4856C179.619 44.3112 179.755 44.172 179.925 44.172H180.644ZM196.318 42.1895C196.916 45.1113 199.53 46.9547 202.502 46.9547C205.867 46.9547 208.789 44.6066 208.789 40.8847C208.789 37.1797 205.869 34.7796 202.502 34.7796C199.564 34.7796 196.985 36.589 196.336 39.4757H194.182V35.2673C194.182 35.093 194.048 34.9526 193.876 34.9526H191.485C191.313 34.9526 191.177 35.093 191.177 35.2673V46.485C191.177 46.6595 191.313 46.7986 191.485 46.7986H193.875C194.046 46.7986 194.182 46.6595 194.182 46.485V42.1895H196.318ZM211.195 46.485V35.266C211.195 35.093 211.332 34.9525 211.502 34.9525H213.895C214.065 34.9525 214.201 35.093 214.201 35.266V44.0849H217.858V35.266C217.858 35.093 217.993 34.9525 218.163 34.9525H220.556C220.728 34.9525 220.863 35.093 220.863 35.266L220.862 44.0849H224.52V35.266C224.52 35.093 224.655 34.9525 224.828 34.9525H227.217C227.389 34.9525 227.525 35.093 227.525 35.266V44.0849H230.157C230.327 44.0849 230.462 44.224 230.462 44.397V49.1636C230.462 49.3379 230.327 49.4759 230.157 49.4759H227.765C227.594 49.4759 227.457 49.3379 227.457 49.1636V46.7986H211.502C211.332 46.7986 211.195 46.6593 211.195 46.485ZM234.096 46.7935C234.37 46.7935 234.538 46.6895 234.609 46.4462L235.137 44.6535H238.707L239.219 46.4462C239.288 46.6895 239.459 46.7935 239.733 46.7935H242.159C242.362 46.7935 242.432 46.6895 242.432 46.5502C242.432 46.4979 242.421 46.4553 242.409 46.4072L242.404 46.3885L242.398 46.359L238.726 35.2102C238.657 34.9839 238.504 34.8967 238.246 34.8967H235.718C235.463 34.8967 235.309 34.9839 235.241 35.2102L231.497 46.359C231.494 46.3739 231.491 46.388 231.487 46.4016C231.475 46.4522 231.465 46.4959 231.465 46.5502C231.465 46.6895 231.533 46.7935 231.739 46.7935H234.096ZM243.829 38.919C243.829 37.6662 244.306 36.5006 245.178 35.8046C245.947 35.197 247.023 34.9525 248.167 34.9525H253.343C253.515 34.9525 253.652 35.0917 253.652 35.266V46.485C253.652 46.6593 253.513 46.7973 253.343 46.7973H250.952C250.78 46.7973 250.643 46.6593 250.643 46.485V42.9362H248.815L246.988 46.485C246.852 46.7452 246.68 46.7973 246.408 46.7973H243.776C243.606 46.7973 243.503 46.7115 243.503 46.554C243.503 46.4669 243.537 46.3627 243.606 46.2417L245.809 42.3456C245.569 42.2063 245.332 42.0503 245.11 41.8409C244.188 41.0056 243.829 39.9623 243.829 38.919ZM107.218 58.9873C107.218 62.6572 110.14 65.0575 113.521 65.0575C116.886 65.0575 119.807 62.7093 119.808 58.9873C119.808 55.2823 116.886 52.8822 113.521 52.8822C110.14 52.8822 107.218 55.2823 107.218 58.9873ZM134.424 64.571C134.424 64.7453 134.288 64.8845 134.116 64.8845H131.828C131.657 64.8845 131.52 64.7453 131.52 64.571L131.521 58.3617L129.726 61.7532C129.606 61.9615 129.504 62.0668 129.247 62.0668H127.488C127.234 62.0668 127.13 61.9615 127.01 61.7532L125.115 58.3617L125.114 64.571C125.114 64.7453 124.977 64.8845 124.807 64.8845H122.518C122.347 64.8845 122.21 64.7453 122.21 64.571V53.352C122.21 53.179 122.348 53.0385 122.519 53.0385H124.926C125.166 53.0385 125.32 53.0736 125.474 53.352L128.309 58.536L131.145 53.352C131.299 53.0736 131.452 53.0385 131.691 53.0385H134.118C134.289 53.0385 134.424 53.179 134.424 53.352V64.571ZM144.471 64.5698C144.471 64.744 144.608 64.8832 144.778 64.8832H147.17C147.343 64.8832 147.476 64.744 147.476 64.5698L147.478 53.352C147.478 53.1776 147.343 53.0385 147.17 53.0385H137.606C137.433 53.0385 137.299 53.1776 137.299 53.352L137.298 64.5698C137.298 64.744 137.433 64.8832 137.606 64.8832H139.996C140.167 64.8832 140.303 64.744 140.303 64.5698V55.7522H144.473L144.471 64.5698ZM152.443 64.5335C152.375 64.7768 152.205 64.8809 151.933 64.8809H149.574C149.368 64.8809 149.3 64.7768 149.3 64.6376C149.3 64.5809 149.312 64.5357 149.325 64.4825L149.334 64.4463L153.075 53.2976C153.143 53.0712 153.298 52.984 153.553 52.984H156.083C156.338 52.984 156.492 53.0712 156.563 53.2976L160.232 64.4463L160.242 64.4825C160.255 64.5357 160.265 64.5809 160.265 64.6376C160.265 64.7768 160.198 64.8809 159.995 64.8809H157.567C157.295 64.8809 157.123 64.7768 157.056 64.5335L156.543 62.7409H152.973L152.443 64.5335ZM172.547 53.352C172.547 53.1776 172.41 53.0385 172.239 53.0385H169.847C169.676 53.0385 169.54 53.1776 169.54 53.352V57.5605H165.099V53.352C165.099 53.1776 164.963 53.0385 164.792 53.0385H162.4C162.229 53.0385 162.094 53.1776 162.094 53.352V64.571C162.094 64.744 162.229 64.8832 162.399 64.8832H164.791C164.962 64.8832 165.099 64.744 165.099 64.571V60.274H169.539V64.571C169.539 64.744 169.676 64.8832 169.847 64.8832H172.239C172.409 64.8832 172.546 64.744 172.546 64.571L172.547 53.352ZM182.894 58.5517L178.419 63.1959V64.5698C178.419 64.744 178.283 64.8832 178.111 64.8832H175.72C175.548 64.8832 175.414 64.744 175.414 64.5698V53.352C175.414 53.1776 175.55 53.0385 175.721 53.0385H178.111C178.283 53.0385 178.419 53.1776 178.419 53.352V59.4389L182.894 54.8129V53.352C182.894 53.1776 183.031 53.0385 183.202 53.0385H185.593C185.764 53.0385 185.902 53.1776 185.902 53.352V64.5698C185.902 64.744 185.764 64.8832 185.593 64.8832H183.201C183.031 64.8832 182.894 64.744 182.894 64.5698V58.5517ZM189.69 53.8906C188.818 54.5866 188.34 55.7522 188.34 57.0049C188.34 58.0483 188.699 59.0916 189.622 59.9268C189.844 60.1362 190.083 60.2923 190.322 60.4315L188.118 64.3277C188.05 64.4487 188.014 64.5527 188.014 64.6412C188.014 64.7973 188.118 64.8832 188.288 64.8832H190.92C191.191 64.8832 191.362 64.8312 191.501 64.571L193.328 61.0222H195.154V64.571C195.154 64.7453 195.291 64.8832 195.463 64.8832H197.854C198.024 64.8832 198.162 64.7453 198.162 64.571V53.352C198.162 53.1776 198.026 53.0385 197.854 53.0385H192.679C191.534 53.0385 190.458 53.283 189.69 53.8906ZM170.481 16.861H172.86C173.033 16.861 173.172 17.0042 173.172 17.1797V21.1982C173.172 21.3596 173.37 21.4323 173.472 21.31L177.085 16.9742C177.144 16.9026 177.232 16.861 177.323 16.861H180.174C180.444 16.861 180.546 17.1043 180.35 17.3346L176.218 22.1427L176.644 22.14C176.75 22.14 176.849 22.1947 176.908 22.2857L180.691 28.2179C180.827 28.4312 180.893 28.7109 180.552 28.7109H177.457C177.346 28.7109 177.244 28.6525 177.188 28.5562L174.519 24.4076C174.469 24.3243 174.354 24.3126 174.289 24.3855L173.253 25.5836C173.201 25.6422 173.172 25.7176 173.172 25.7969V28.3922C173.172 28.5679 173.033 28.7109 172.86 28.7109H170.481C170.31 28.7109 170.169 28.5679 170.169 28.3922V17.1797C170.169 17.0042 170.31 16.861 170.481 16.861ZM98.8548 53.0218H96.4784C96.3046 53.0218 96.1653 53.1649 96.1653 53.3405V64.5529C96.1653 64.7286 96.3046 64.8716 96.4784 64.8716H98.8548C99.0272 64.8716 99.1677 64.7286 99.1677 64.5529V61.9576C99.1677 61.8783 99.1971 61.8027 99.2495 61.7443L100.284 60.5462C100.35 60.4733 100.465 60.485 100.514 60.5683L103.185 64.7169C103.241 64.813 103.342 64.8716 103.453 64.8716H106.547C106.888 64.8716 106.823 64.5906 106.687 64.3786L102.903 58.4465C102.845 58.3555 102.745 58.3008 102.639 58.3008L102.214 58.3033L106.347 53.4953C106.542 53.265 106.44 53.0218 106.17 53.0218H103.319C103.228 53.0218 103.141 53.0633 103.081 53.1349L99.4679 57.4707C99.3658 57.593 99.1677 57.5202 99.1677 57.3589V53.3405C99.1677 53.1649 99.0272 53.0218 98.8548 53.0218ZM126.977 24.0832C126.704 23.9779 126.328 23.9089 125.867 23.9089H124.996V26.2219H126.107C126.499 26.2219 126.875 26.1699 127.149 26.0137C127.44 25.8395 127.628 25.5442 127.628 25.0576C127.628 24.6049 127.44 24.2745 126.977 24.0832ZM151.384 19.545C151.741 19.545 152.101 19.6153 152.391 19.8065C152.749 20.0329 152.99 20.4492 152.99 21.1282C152.99 21.8242 152.749 22.2417 152.373 22.4669C152.101 22.6412 151.741 22.7102 151.382 22.7102H149.488V19.545H151.384ZM187.065 20.516L185.989 24.1169H188.106L187.065 20.516ZM197.487 19.7566C197.759 19.5472 198.134 19.4613 198.494 19.4613H200.764V22.2777H198.527C198.168 22.2777 197.809 22.1919 197.537 22.0176C197.213 21.7912 197.007 21.4087 197.007 20.8702C197.007 20.3486 197.177 19.983 197.487 19.7566ZM148.276 37.8925C147.988 37.7012 147.628 37.631 147.269 37.631H145.373V40.796H147.269C147.628 40.796 147.988 40.7272 148.26 40.5527C148.635 40.3277 148.874 39.9102 148.874 39.2142C148.874 38.535 148.635 38.1187 148.276 37.8925ZM172.527 37.631C172.886 37.631 173.243 37.7012 173.533 37.8925C173.893 38.1187 174.132 38.535 174.132 39.2142C174.132 39.9102 173.893 40.3277 173.517 40.5527C173.243 40.7272 172.886 40.796 172.527 40.796H170.631V37.631H172.527ZM202.503 37.6477C200.692 37.6477 199.393 39.0046 199.393 40.883C199.393 42.7616 200.692 44.1002 202.503 44.1002C204.314 44.1002 205.595 42.7616 205.596 40.883C205.596 39.0046 204.314 37.6477 202.503 37.6477ZM235.872 42.2029L236.95 38.6019L237.99 42.2029H235.872ZM248.377 37.5417C248.019 37.5417 247.643 37.6276 247.37 37.837C247.062 38.0633 246.89 38.4289 246.89 38.9506C246.89 39.4892 247.096 39.8716 247.421 40.0979C247.694 40.2723 248.052 40.3582 248.41 40.3582H250.649V37.5417H248.377ZM110.413 58.9856C110.413 57.1072 111.712 55.7503 113.522 55.7503C115.334 55.7503 116.614 57.1072 116.614 58.9856C116.614 60.8642 115.332 62.2028 113.522 62.2028C111.712 62.2028 110.413 60.8642 110.413 58.9856ZM154.785 56.6879L153.707 60.2887H155.827L154.785 56.6879ZM191.881 55.9229C192.153 55.7135 192.529 55.6276 192.89 55.6276H195.16V58.444H192.921C192.564 58.444 192.204 58.3582 191.933 58.1839C191.607 57.9576 191.401 57.575 191.401 57.0365C191.401 56.5149 191.571 56.1493 191.881 55.9229Z" fill="#1F1F22"/>
</g>
<defs>
<clipPath id="clip0_26_18191">
<rect width="255" height="80" fill="white" transform="translate(0 0.884277)"/>
</clipPath>
</defs>
</svg>
