<svg width="27" height="27" viewBox="0 0 27 27" fill="none" xmlns="http://www.w3.org/2000/svg">
<g id="solar:phone-bold">
<path id="Vector" d="M16.952 16.1177L16.4464 16.621C16.4464 16.621 15.2431 17.8166 11.9598 14.5521C8.67647 11.2877 9.87979 10.0922 9.87979 10.0922L10.1976 9.77438C10.9831 8.99439 11.0576 7.74106 10.372 6.82551L8.97202 4.95553C8.12314 3.8222 6.48426 3.6722 5.51205 4.63886L3.76761 6.37218C3.2865 6.85218 2.96428 7.47218 3.00317 8.16106C3.10317 9.92438 3.90094 13.7166 8.3498 18.141C13.0687 22.8321 17.4964 23.0187 19.3064 22.8499C19.8797 22.7965 20.3775 22.5054 20.7786 22.1054L22.3564 20.5365C23.423 19.4777 23.123 17.661 21.7586 16.9199L19.6364 15.7655C18.7408 15.2788 17.652 15.4221 16.952 16.1177Z" fill="black"/>
</g>
</svg>
